<svg width="224" height="90" viewBox="0 0 224 90" fill="none" xmlns="http://www.w3.org/2000/svg">
<g clip-path="url(#clip0_11_28)">
<path d="M64.9065 52.9475C62.7215 52.9475 61.6723 51.2815 62.2185 49.353C63.3517 45.3583 70.6304 39.4376 75.5899 39.4376C79.211 39.4376 78.9328 42.646 76.8131 45.3843L75.6408 46.6694C71.4362 50.7617 67.5377 52.9475 64.9065 52.9475ZM82.6361 26.0068C76.3058 26.0094 69.3326 29.8494 64.9566 33.4867L65.3018 33.9829C72.0952 29.2607 81.525 26.1885 84.1248 30.7955C85.4972 33.2268 83.1663 38.1341 79.8853 42.0145C80.6725 40.3005 80.1534 37.0113 75.5789 37.0113C67.9712 37.0105 53 47.0016 53 57.224C53 61.3205 55.8645 63.9932 60.5831 63.9932C73.2174 63.9932 90.3533 43.4593 90.3533 33.1461C90.3524 29.5037 88.2387 26.0068 82.6361 26.0068ZM98.9009 52.9475C98.1671 52.9475 97.5547 52.691 97.1722 52.2293C96.7727 51.7415 96.6539 51.0527 96.8439 50.3387C97.2621 48.7904 98.9441 47.5785 100.672 47.5785H104.737L103.286 52.9483L98.9009 52.9475ZM110.589 36.8473C109.425 35.4294 107.544 34.7961 106.196 34.7961H98.8059L97.5513 39.4343H104.52L105.186 39.5041C105.194 39.5041 105.828 39.5772 106.179 40.049C106.465 40.4418 106.506 41.028 106.302 41.7941L105.972 43.0136H101.582C97.8024 43.0136 92.5349 45.7006 91.3618 50.0427C90.7774 52.2082 91.2889 54.0837 92.4238 55.4621C93.5503 56.8295 95.6734 57.5822 97.9687 57.5822H102.034L102.033 57.5839H107.202L109.625 48.6087L111.41 42.0111C112.11 39.42 111.351 37.7716 110.589 36.8473ZM161.344 34.7961C159.345 34.7961 157.489 35.3823 155.977 36.4933C154.452 37.6135 153.611 38.9608 153.109 40.816C152.023 44.8377 155.209 46.7787 157.773 48.1538C159.609 49.1419 161.196 49.993 160.854 51.2545C160.61 52.1603 160.212 52.9517 157.952 52.9517H151.052L149.799 57.5906H157.435C159.483 57.5906 161.373 57.1668 162.896 56.0079C164.422 54.8456 165.281 53.2242 165.816 51.247C166.326 49.364 165.979 47.5667 164.76 46.2237C163.743 45.0992 162.276 44.3163 160.986 43.625C159.333 42.7419 157.774 41.9093 158.047 40.8993C158.211 40.2904 158.825 39.4376 160.16 39.4376H166.869L168.124 34.7995H161.342V34.7961H161.344ZM121.302 34.7961C119.303 34.7961 117.446 35.3823 115.935 36.4933C114.41 37.6135 113.569 38.9608 113.065 40.816C111.978 44.8377 115.167 46.7787 117.729 48.1538C119.566 49.1419 121.154 49.993 120.812 51.2545C120.567 52.1603 120.169 52.9517 117.908 52.9517H111.011L109.756 57.5906H117.393C119.442 57.5906 121.333 57.1668 122.854 56.0079C124.381 54.8456 125.24 53.2242 125.773 51.247C126.284 49.364 125.936 47.5667 124.719 46.2237C123.703 45.0992 122.235 44.3163 120.942 43.625C119.29 42.7419 117.731 41.9093 118.005 40.8993C118.169 40.2904 118.784 39.4376 120.116 39.4376H126.824L128.079 34.7995H121.301L121.302 34.7961ZM131.722 34.7961L125.733 57.5864H130.792L136.778 34.7961H131.722ZM150.242 34.7961C141.334 34.8281 136.673 40.7109 135.191 46.1909C133.436 52.6893 136.925 57.5873 143.305 57.5873H147.582L148.835 52.9483H144.561C142.172 52.9483 138.888 51.0838 140.212 46.1909C141.263 42.3004 145.086 39.4343 149.285 39.4343H151.999L153.253 34.7961H150.242ZM167.77 56.5444H168.212V55.5588H168.564C168.801 55.5588 168.966 55.584 169.057 55.6378C169.216 55.7312 169.298 55.9238 169.298 56.2131V56.4124L169.305 56.4923C169.309 56.5041 169.309 56.5125 169.313 56.5217L169.319 56.5444H169.735L169.72 56.5142C169.706 56.4721 169.698 56.4281 169.698 56.3838C169.693 56.3217 169.691 56.2594 169.691 56.1971V56.0138C169.686 55.8738 169.639 55.7386 169.555 55.6261C169.463 55.4932 169.317 55.4116 169.119 55.3796C169.274 55.3561 169.397 55.3183 169.485 55.2577C169.65 55.1517 169.732 54.9894 169.731 54.764C169.732 54.4503 169.602 54.2393 169.342 54.1308C169.195 54.0719 168.966 54.0433 168.652 54.0433H167.77V56.5444ZM169.037 55.1963C168.946 55.2325 168.804 55.2518 168.616 55.2518H168.213V54.3461H168.591C168.838 54.3461 169.018 54.3755 169.13 54.4377C169.242 54.5 169.298 54.6219 169.298 54.8044C169.298 54.997 169.211 55.1274 169.037 55.1963ZM170.327 53.6926C170.114 53.4782 169.859 53.3088 169.579 53.1947C169.298 53.0806 168.997 53.0243 168.694 53.0291C168.063 53.0291 167.521 53.2511 167.074 53.6926C166.857 53.9008 166.686 54.1509 166.57 54.4273C166.455 54.7037 166.398 55.0006 166.403 55.2998C166.403 55.9339 166.625 56.4738 167.069 56.9178C167.515 57.3636 168.058 57.5873 168.695 57.5873C169.332 57.5873 169.876 57.3636 170.325 56.9178C170.774 56.4713 171 55.9322 171 55.2998C171 54.6715 170.775 54.135 170.327 53.6926ZM170.096 53.9138C170.483 54.2964 170.675 54.759 170.675 55.2989C170.675 55.8456 170.483 56.3106 170.096 56.6958C169.713 57.081 169.246 57.2744 168.697 57.2744C168.148 57.2744 167.683 57.0818 167.296 56.6958C167.11 56.5134 166.964 56.2956 166.865 56.0555C166.766 55.8154 166.718 55.5581 166.722 55.2989C166.722 54.7573 166.916 54.2964 167.298 53.9138C167.479 53.7279 167.696 53.5807 167.936 53.4814C168.177 53.382 168.435 53.3325 168.695 53.336C168.956 53.3322 169.215 53.3814 169.456 53.4808C169.697 53.5802 169.915 53.7276 170.096 53.9138Z" fill="black"/>
</g>
<defs>
<clipPath id="clip0_11_28">
<rect width="118" height="38" fill="white" transform="translate(53 26)"/>
</clipPath>
</defs>
</svg>
