<svg width="224" height="90" viewBox="0 0 224 90" fill="none" xmlns="http://www.w3.org/2000/svg">
<path fill-rule="evenodd" clip-rule="evenodd" d="M143.611 55.1726C143.611 57.1161 142.197 58.5746 140.319 58.5746C138.397 58.5746 136.917 57.1161 136.917 55.1726C136.917 53.2291 138.441 51.7705 140.319 51.7705C142.197 51.7705 143.611 53.2291 143.611 55.1726ZM137.116 49.6019H134.465V65H137.116V59.1236C137.493 60.1614 138.796 60.9794 140.674 60.9794C143.811 60.9794 146.241 58.4612 146.241 55.1689C146.241 51.8766 143.811 49.3585 140.674 49.3585C138.796 49.3585 137.491 50.1765 137.116 51.2142V49.6019ZM118.358 55.169C118.358 57.1363 116.856 58.6608 114.912 58.6608C112.947 58.6608 111.466 57.1344 111.466 55.169C111.466 53.2035 112.969 51.6791 114.912 51.6791C116.856 51.6791 118.358 53.2017 118.358 55.169ZM120.988 55.169C120.988 51.8328 118.27 49.2707 114.912 49.2707C111.532 49.2707 108.836 51.8328 108.836 55.169C108.836 58.5052 111.554 61.0673 114.912 61.0673C118.27 61.0673 120.988 58.5052 120.988 55.169ZM99.2267 47.393C97.7462 45.9125 95.7569 45.0725 93.5041 45.0725V45.0743C88.9747 45.0743 85.3292 48.4544 85.3292 53.0497C85.3292 57.6451 88.9747 61.0032 93.5041 61.0032C96.09 61.0032 98.3647 59.8759 99.8013 58.108V51.9004H92.9075V54.3527H97.1935V57.1802C96.2437 58.0183 94.9627 58.5052 93.5041 58.5052C90.4113 58.5052 88.0688 56.1627 88.0688 53.0479C88.0688 49.9331 90.4113 47.5687 93.5041 47.5687C95.0285 47.5687 96.3993 48.0994 97.393 49.0712L99.2267 47.393ZM76.4443 60.6847H43V27.2385H76.4443V60.6847ZM74.6344 43.9561C74.6179 37.335 70.3466 31.7313 64.4355 29.7933V58.1245C70.4655 56.0601 74.6509 50.4674 74.6344 43.9561ZM62.8689 29.3669C61.921 29.1784 60.7845 29.0357 59.7157 29.0357C51.7605 29.0357 45.3333 35.4079 44.8154 43.1747L47.9778 43.1802C55.5395 43.1802 62.8689 36.9433 62.8689 29.3669ZM62.8689 58.5563C62.8689 50.9872 55.5432 44.7577 47.9815 44.7577H44.8154C45.1156 52.4915 51.7605 58.8821 59.7176 58.8931C60.7278 58.8931 61.9228 58.7485 62.8689 58.5563ZM95.5811 27.2954H86.0154V37.7889C86.0154 40.9257 87.5837 42.6935 90.854 42.6935H95.7366V40.1973H90.9858C90.1458 40.1973 88.7769 39.7764 88.7769 37.8768V35.9333H95.14V33.4371H88.7769V29.7916H95.5811V27.2954ZM97.6803 27.2953H100.332V42.6952H97.6803V27.2953ZM107.687 33.5029C109.233 33.5029 110.493 34.6083 110.493 35.9332H104.55C104.66 34.5863 106.031 33.5029 107.687 33.5029ZM107.687 31.2519C104.351 31.2519 101.855 33.5487 101.855 37.1282V37.1301H101.857V37.2179C101.857 40.7097 104.265 42.9625 107.755 42.9625C109.433 42.9625 111.001 42.4976 112.438 40.9732L110.848 39.4268C110.008 40.2668 109.19 40.7078 107.843 40.7078C105.877 40.7078 104.572 39.5586 104.484 37.7907H113.144C113.188 37.3497 113.188 36.8629 113.188 36.8629C113.188 33.7481 111.023 31.2519 107.687 31.2519ZM120.192 31.2061C121.848 31.2061 123.372 31.7588 124.655 33.1277L123.021 34.8296C122.271 34.0555 121.387 33.6145 120.194 33.6145C118.25 33.6145 116.77 35.095 116.77 37.1062C116.77 39.1175 118.25 40.5962 120.194 40.5962C121.387 40.5962 122.271 40.1551 123.021 39.381L124.655 41.083C123.374 42.4518 121.85 43.0045 120.192 43.0045C116.834 43.0045 114.138 40.5083 114.138 37.1062C114.138 33.7042 116.834 31.208 120.192 31.208V31.2061ZM128.544 27.2953H125.893V38.0322C125.893 41.8113 128.632 42.7391 130.466 42.7391H130.997V40.2429H130.865C129.472 40.2429 128.544 39.5585 128.544 37.8565V33.9677H130.997V31.5593H128.544V27.2953ZM132.278 31.5594H134.907V33.2156C135.438 32.0663 136.631 31.338 138.222 31.338C138.509 31.338 138.906 31.3819 139.018 31.4039V33.9659C138.708 33.9001 138.333 33.8561 137.912 33.8561C136.079 33.8561 134.907 35.0054 134.907 36.8391V42.6935H132.278V31.5594ZM148.869 37.1264C148.869 39.0937 147.367 40.6182 145.423 40.6182C143.458 40.6182 141.977 39.0937 141.977 37.1264C141.977 35.1591 143.479 33.6346 145.423 33.6346C147.367 33.6346 148.869 35.1591 148.869 37.1264ZM151.499 37.1264C151.499 33.7902 148.781 31.2281 145.423 31.2281C142.043 31.2281 139.347 33.7902 139.347 37.1264C139.347 40.4626 142.065 43.0247 145.423 43.0247C148.781 43.0247 151.499 40.4626 151.499 37.1264ZM153.023 27.2953H155.675V42.6952H153.023V27.2953ZM160.224 31.5594H157.551V38.2776C157.551 41.4582 159.849 42.9826 162.633 42.9826C165.416 42.9826 167.759 41.4362 167.759 38.2098V31.5594H165.085V38.0323C165.085 39.8002 164.047 40.5505 162.655 40.5505C161.262 40.5505 160.224 39.8002 160.224 38.0543V31.5594ZM172.863 36.8189L169.018 31.5611H171.891L174.321 34.8973L176.73 31.5611H179.625L175.78 36.7969L180 42.6952H177.151L174.323 38.7624L171.496 42.6952H168.646L172.866 36.8189H172.863ZM101.767 49.6019H104.397V51.2581C104.927 50.1088 106.121 49.3804 107.711 49.3804C107.998 49.3804 108.395 49.4243 108.507 49.4463V52.0084C108.198 51.9425 107.823 51.8986 107.402 51.8986C105.568 51.8986 104.397 53.0478 104.397 54.8816V60.7359H101.767V49.6019ZM122.381 49.6019H125.054V56.0967C125.054 57.8426 126.092 58.5929 127.485 58.5929C128.877 58.5929 129.915 57.8426 129.915 56.0748V49.6019H132.589V56.2523C132.589 59.4787 130.246 61.0251 127.463 61.0251C124.679 61.0251 122.381 59.5006 122.381 56.32V49.6037V49.6019Z" fill="black"/>
</svg>
