<svg width="224" height="90" viewBox="0 0 224 90" fill="none" xmlns="http://www.w3.org/2000/svg">
<path d="M98.8408 57.0418C97.3586 51.6282 93.0433 48.0531 88.2767 45.9525C84.7792 44.4105 81.0913 43.7141 77.8924 43.4602C77.8425 42.7348 77.8061 42.0042 77.7863 41.2705C77.7697 40.685 77.7645 40.1016 77.7676 39.5223C81.0268 39.2186 84.3131 38.1025 86.8254 35.7906C89.8891 32.9708 92.1153 27.58 89.6238 23.0151C88.6116 21.2762 87.0231 20.1694 85.1537 19.899C82.8702 19.5694 80.7678 20.4078 79.0773 22.3239C77.649 23.9436 76.5473 26.2774 75.8014 29.2598C75.1814 31.7417 74.8132 34.5563 74.6893 37.4963C74.0714 37.4579 73.4337 37.3875 72.7742 37.2787C71.9222 37.1346 71.014 36.9077 70.0777 36.5947C69.5024 32.8589 68.459 29.7738 66.9704 27.4225C65.5847 25.2328 63.8193 23.7571 61.9967 23.2669C60.2095 22.7861 58.5294 23.2794 57.5016 24.5872C56.5112 25.8473 56.453 27.6391 57.3029 29.5438C58.9622 33.2672 62.9299 36.1066 67.0962 37.7999C67.3875 40.0435 67.3314 42.3016 66.935 44.4633C64.587 45.139 60.9699 46.2872 57.3372 49.251C55.1308 51.0511 52.2367 55.5765 54.8988 58.1217C55.6519 58.8036 56.6537 59.1538 57.8085 59.1538C58.3369 59.1538 58.8987 59.0802 59.4823 58.9321C61.1593 58.5051 62.8612 57.5072 64.4039 56.0439C66.5751 53.9848 68.8044 50.451 69.828 45.9027C71.453 45.598 73.1716 45.4354 74.9286 45.4219C75.2397 48.4997 75.8004 51.5153 76.6076 54.2418C78.2066 59.6419 80.694 63.6016 84.0021 66.0089C86.9867 68.1811 89.7216 68.3572 90.4883 68.3594H90.5185C94.1169 68.3594 97.0713 66.5096 98.4267 63.4067C99.1676 61.7104 99.4909 59.3279 98.843 57.0408L98.8408 57.0418ZM84.7043 22.9757C85.8663 23.1436 86.5529 23.9385 86.9232 24.5747C88.388 27.151 87.9032 32.5024 83.3883 35.4414C81.9725 36.3626 80.0968 37.115 77.8217 37.4041C77.9496 34.7035 78.2919 32.1604 78.8287 30.0112C80.5442 23.1426 83.509 22.8027 84.7043 22.9757ZM61.5421 31.0019C59.8714 29.1158 59.4855 27.1044 59.9588 26.5022C60.2771 26.097 60.8618 26.181 61.1822 26.267C62.2297 26.5489 63.3761 27.5738 64.3291 29.0785C65.3069 30.6246 66.083 32.662 66.6166 35.059C64.8211 34.0548 63.0619 32.7159 61.5431 31.0008L61.5421 31.0019ZM62.2516 53.7921C59.8474 56.0719 57.5536 56.3258 56.9991 55.8222C56.0233 54.9952 57.3133 52.6179 58.9122 51.1236C61.0625 49.1132 63.4927 47.7629 66.3597 46.8085C66.3046 46.9867 66.2473 47.1649 66.186 47.3411C65.2986 49.936 63.9015 52.2273 62.2516 53.791V53.7921ZM70.2119 43.7151C70.4065 42.1917 70.4626 40.5751 70.3409 38.8808C70.988 39.0497 71.6278 39.1896 72.2498 39.2984C73.0186 39.4321 73.8207 39.5254 74.6425 39.573C74.6384 40.8228 74.6758 42.085 74.757 43.3462C73.2038 43.3596 71.6777 43.4809 70.213 43.7151H70.2119ZM95.5629 62.1674C94.7067 64.1281 92.8675 65.2516 90.5164 65.2516H90.4956C89.7403 65.2494 83.0138 64.8968 79.5995 53.364C78.8922 50.9733 78.3783 48.3266 78.0776 45.5587C81.1111 45.8561 84.5951 46.6675 87.6223 48.2292C91.6025 50.2832 94.8586 53.5682 95.8978 58.0543C96.1964 59.5279 96.0862 60.9684 95.5629 62.1674Z" fill="black"/>
<path d="M110.112 24.8029V39.5183H107.823V32.6787H99.9169V39.5183H97.6284V24.8029H99.9169V30.5026H107.823V24.8029H110.112ZM112.983 29.5699H115.168V39.5183H112.983V29.5699ZM114.065 27.6009C114.452 27.6009 114.788 27.4651 115.064 27.1988C115.341 26.9315 115.48 26.5988 115.48 26.2123C115.48 25.8257 115.341 25.492 115.065 25.2164C114.789 24.9418 114.453 24.8029 114.065 24.8029C113.677 24.8029 113.344 24.9428 113.075 25.2174C112.807 25.492 112.671 25.8267 112.671 26.2123C112.671 26.5978 112.807 26.9294 113.076 27.1978C113.344 27.4651 113.677 27.6009 114.065 27.6009ZM122.929 31.4352C121.868 31.4352 120.958 31.8798 120.224 32.7575V39.5183H118.039V29.5699H120.161V30.3709C120.937 29.7015 121.888 29.3626 122.991 29.3626C124.488 29.3626 125.712 29.9543 126.631 31.1222C127.28 31.9388 127.61 33.1254 127.61 34.6477V39.5183H125.425V34.5441C125.425 33.5503 125.237 32.8124 124.865 32.3492C124.388 31.743 123.737 31.4352 122.929 31.4352ZM132.07 39.0685C132.804 39.5048 133.649 39.7256 134.579 39.7256C135.671 39.7256 136.628 39.4095 137.429 38.7846V39.1038C137.429 40.1971 137.252 41.022 136.905 41.5557C136.442 42.2666 135.673 42.6272 134.62 42.6272C133.385 42.6272 132.327 42.0552 131.479 40.9277L131.409 40.8354L129.805 42.3194L129.851 42.3919C130.233 42.9982 130.851 43.5402 131.688 44.0024C132.524 44.4646 133.539 44.6998 134.704 44.6998C135.674 44.6998 136.543 44.4822 137.283 44.0531C138.025 43.6241 138.609 43.0137 139.02 42.2386C139.414 41.4665 139.614 40.3774 139.614 39.0001V29.5699H137.491V30.3461C136.651 29.6932 135.659 29.3626 134.537 29.3626C133.635 29.3626 132.812 29.5761 132.092 29.9989C131.317 30.4486 130.688 31.0818 130.224 31.8808C129.759 32.6808 129.524 33.5762 129.524 34.5441C129.524 35.512 129.756 36.4042 130.214 37.197C130.671 37.9898 131.297 38.6198 132.07 39.0685ZM132.564 32.3451C133.13 31.7409 133.864 31.4352 134.745 31.4352C135.845 31.4352 136.748 31.8798 137.429 32.7554V36.3338C136.762 37.2094 135.894 37.6529 134.849 37.6529C133.953 37.6529 133.197 37.3462 132.604 36.741C132.009 36.1358 131.708 35.3969 131.708 34.5441C131.708 33.6912 131.996 32.9513 132.564 32.3451ZM149.189 39.197C148.47 39.5473 147.628 39.7256 146.688 39.7256V39.7266C145.236 39.7266 144.001 39.2281 143.015 38.2457C142.028 37.2633 141.528 36.0291 141.528 34.5451C141.528 33.0611 141.989 31.8134 142.898 30.8372C143.808 29.859 145.013 29.3636 146.397 29.3636C147.78 29.3636 148.939 29.8631 149.844 30.8486C150.746 31.831 151.203 33.0746 151.203 34.5451C151.203 34.6985 151.196 34.8415 151.181 34.971L151.171 35.0633H143.659C143.734 35.8135 144.051 36.4571 144.605 36.9773C145.185 37.5224 145.893 37.7991 146.708 37.7991C147.741 37.7991 148.659 37.3649 149.439 36.5068L149.511 36.4281L150.946 37.7877L150.889 37.8613C150.48 38.397 149.908 38.8468 149.189 39.197ZM146.459 31.2901C145.847 31.2901 145.288 31.4818 144.796 31.859H144.796C144.34 32.2093 144.023 32.6591 143.852 33.1969H148.906C148.759 32.6694 148.464 32.2228 148.027 31.8673C147.556 31.4849 147.028 31.2901 146.459 31.2901ZM120.308 58.6897V43.9744H118.019V49.674H110.113V43.9744H107.824V58.6897H110.113V51.8502H118.019V58.6897H120.308ZM131.918 53.7155C131.918 53.8689 131.91 54.0119 131.896 54.1414V54.1425L131.885 54.2347H124.374C124.448 54.985 124.766 55.6286 125.32 56.1488C125.901 56.6939 126.608 56.9706 127.423 56.9706C128.455 56.9706 129.374 56.5363 130.154 55.6783L130.226 55.5995L131.661 56.9592L131.605 57.0327C131.195 57.5685 130.621 58.0182 129.904 58.3685C129.185 58.7188 128.343 58.897 127.403 58.897C125.951 58.897 124.716 58.3985 123.73 57.4161C122.743 56.4337 122.243 55.2005 122.243 53.7155C122.243 52.2305 122.704 50.9839 123.613 50.0077C124.523 49.0294 125.728 48.5341 127.111 48.5341C128.495 48.5341 129.654 49.0336 130.559 50.0191C131.461 51.0015 131.918 52.245 131.918 53.7155ZM125.511 51.0305C125.054 51.3808 124.738 51.8295 124.566 52.3684L124.567 52.3694H129.621C129.474 51.8419 129.179 51.3953 128.742 51.0398C128.27 50.6564 127.743 50.4616 127.174 50.4616C126.562 50.4616 126.002 50.6533 125.511 51.0305ZM141.404 49.5175C140.564 48.8646 139.571 48.5341 138.45 48.5341C137.547 48.5341 136.725 48.7486 136.005 49.1703C135.23 49.6201 134.601 50.2533 134.136 51.0523C133.671 51.8523 133.436 52.7487 133.436 53.7155C133.436 54.6824 133.668 55.5757 134.126 56.3684C134.584 57.1612 135.209 57.7913 135.983 58.24C136.717 58.6763 137.561 58.897 138.491 58.897C139.622 58.897 140.601 58.5685 141.404 57.9198V58.6897H143.526V48.7413H141.404V49.5175ZM141.342 55.5042C140.675 56.3799 139.807 56.8234 138.762 56.8234C137.865 56.8234 137.11 56.5167 136.516 55.9115C135.921 55.3062 135.619 54.5664 135.619 53.7145C135.619 52.8627 135.907 52.1217 136.475 51.5155C137.041 50.9113 137.776 50.6056 138.657 50.6056C139.757 50.6056 140.659 51.0502 141.341 51.9259V55.5042H141.342ZM146.272 43.7671H148.457V58.6897H146.272V43.7671ZM150.309 50.7103H152.806V55.0627C152.806 56.2306 153.081 57.126 153.622 57.7229C154.319 58.5022 155.276 58.897 156.467 58.897C157.086 58.897 157.614 58.8255 158.04 58.6846L158.129 58.6545L157.69 56.6731L157.584 56.7032C157.303 56.783 156.948 56.8234 156.53 56.8234C155.942 56.8234 155.514 56.6617 155.256 56.3405C155.08 56.1405 154.99 55.7446 154.99 55.1653V50.7092H158.111V48.7403H154.99V46.0459H152.806V48.7403H150.309V50.7092V50.7103ZM164.915 50.6067C163.855 50.6067 162.944 51.0512 162.21 51.929V58.6897H160.025V43.7671H162.21V49.4771C163.018 48.8512 163.948 48.5341 164.977 48.5341C166.474 48.5341 167.698 49.1258 168.617 50.2937C169.266 51.1103 169.596 52.2968 169.596 53.8192V58.6897H167.412V53.7155C167.412 52.7217 167.223 51.9839 166.852 51.5206C166.374 50.9144 165.723 50.6067 164.915 50.6067Z" fill="black"/>
</svg>
