<svg width="224" height="90" viewBox="0 0 224 90" fill="none" xmlns="http://www.w3.org/2000/svg">
<mask id="mask0_16_6" style="mask-type:luminance" maskUnits="userSpaceOnUse" x="58" y="34" width="108" height="22">
<path d="M166 34.382H58V55.382H166V34.382Z" fill="white"/>
</mask>
<g mask="url(#mask0_16_6)">
<path fill-rule="evenodd" clip-rule="evenodd" d="M115.564 54.3765L115.563 54.3756H121.265L124.768 47.3844L128.27 54.3756H135.199L124.767 34.3816L114.865 53.3633L111.063 47.8524C113.41 46.7285 114.874 44.7822 114.874 41.9863V41.9313C114.874 39.9579 114.266 38.5324 113.106 37.3809C111.753 36.0378 109.572 35.188 106.148 35.188H96.7038V54.3765H103.166V48.894H104.546L108.191 54.3765H115.564ZM155.411 34.3816L144.98 54.3756H151.909L155.412 47.3844L158.914 54.3756H165.843L155.411 34.3816ZM140.095 55.1624L150.526 35.1684H143.597L140.095 42.1596L136.592 35.1684H129.663L140.095 55.1624ZM105.955 44.3162C107.501 44.3162 108.44 43.6309 108.44 42.4523V42.3972C108.44 41.1638 107.473 40.5607 105.982 40.5607H103.166V44.3162H105.955ZM82.8852 40.6156H77.197V35.188H95.0353V40.6156H89.3471V54.3765H82.8852V40.6156ZM61.4519 47.4138L57.9999 51.4982C60.4577 53.6367 63.9923 54.7329 67.9132 54.7329C73.1048 54.7329 76.4461 52.2657 76.4461 48.2359V48.1813C76.4461 44.3162 73.1324 42.8906 68.1896 41.9863C66.146 41.6021 65.6214 41.2736 65.6214 40.7526V40.6978C65.6214 40.2318 66.0634 39.9029 67.0296 39.9029C68.8244 39.9029 71.0063 40.4785 72.8284 41.7942L75.9767 37.4633C73.7399 35.7088 70.9786 34.8315 67.2507 34.8315C61.9209 34.8315 59.0492 37.6552 59.0492 41.3008V41.3559C59.0492 45.4126 62.8602 46.6465 67.1953 47.5232C69.2665 47.9346 69.8737 48.2359 69.8737 48.7843V48.8394C69.8737 49.36 69.3769 49.6613 68.217 49.6613C65.9527 49.6613 63.5505 49.0038 61.4519 47.4138Z" fill="black"/>
</g>
</svg>
