<svg width="224" height="90" viewBox="0 0 224 90" fill="none" xmlns="http://www.w3.org/2000/svg">
<g clip-path="url(#clip0_144_4461)">
<path d="M100.856 42.734C101.204 44.3434 98.9195 45.7136 95.8298 46.1703C95.8298 45.4526 96.0909 43.5169 97.9186 42.5818C99.2024 41.951 100.704 41.9728 100.856 42.734ZM104.49 48.5191C104.098 48.5191 101.835 51.0202 98.9413 51.2377C96.896 51.3899 95.808 49.9328 95.808 48.9758C102.096 48.0841 104.686 45.6266 104.686 42.4948C104.686 40.3851 102.88 38.1885 99.8987 38.1885C93.371 38.1885 91.6521 44.4739 91.4345 48.8236C91.2822 50.7375 90.1725 51.0202 89.3239 50.9767C88.4535 50.9332 87.8225 50.172 87.9748 48.8019L89.2586 40.1677C89.2804 40.0154 89.6067 38.2755 88.3665 38.232C87.061 38.1668 85.342 38.7758 85.0374 40.6461C84.7545 42.473 84.624 43.5169 84.3846 44.9958C84.2105 46.2355 83.9712 47.4969 83.8624 48.6931C83.623 49.824 83.2314 50.3895 82.0346 50.3895C80.5115 50.2373 80.555 48.9106 80.7074 47.7797L81.7735 40.1894C81.7953 40.0372 82.1217 38.2755 80.8814 38.232C79.5759 38.1668 77.8569 38.7975 77.5523 40.6679C77.487 41.1246 77.4218 41.5378 77.3565 41.9293V41.9075C77.0519 44.0824 76.0292 45.0393 74.8542 44.8001C73.6792 44.5391 74.2667 41.3203 74.2885 41.2768C74.6801 38.58 73.7227 37.6231 71.3728 38.6235C70.1325 39.1455 68.8488 40.5156 68.0002 41.5378L68.196 40.1677C68.2177 40.0154 68.5441 38.2755 67.3039 38.232C65.9983 38.1668 64.2794 38.7758 63.9748 40.6461C63.9748 40.7114 63.953 40.7766 63.953 40.8419C63.953 40.8419 63.8007 41.6466 63.6049 42.3425C63.5178 42.6252 63.4308 42.908 63.3655 43.1037C63.1044 43.8649 62.8215 44.6044 62.5169 45.3221C62.1905 46.0398 61.8642 46.7357 61.4725 47.4099C61.2767 47.7362 61.0808 48.0624 60.8632 48.3669C60.6457 48.6714 60.4281 48.9758 60.1887 49.2368C59.7318 49.7805 59.2096 50.2373 58.6874 50.5635C58.6003 50.6287 58.5133 50.6722 58.4262 50.7157C55.9022 51.8032 55.4453 49.3673 55.38 49.0193C55.3582 48.8453 55.3365 48.6496 55.3365 48.4539C55.3147 48.1494 55.3147 47.8232 55.3365 47.4752C55.3365 47.149 55.3582 46.801 55.4018 46.453C55.467 45.757 55.5758 45.0393 55.7281 44.3216C55.8587 43.6692 56.011 43.0385 56.1851 42.386C57.6647 42.56 59.0573 42.6905 59.5577 42.7122C60.7545 42.7992 61.429 42.1903 61.5378 41.5161C61.6248 40.9941 61.5595 41.2768 61.7771 40.0372C62.1035 38.2103 61.7118 38.2103 60.2105 38.2103C60.2105 38.2103 59.1443 38.2103 57.6212 38.2103C57.6647 38.1233 57.6864 38.0363 57.73 37.9276C58.2957 36.5574 59.0137 35.3177 59.7535 33.9476C60.6892 32.1859 60.4498 31.7727 59.2966 30.794C55.7281 28.1624 53.9222 32.8601 53.5087 33.5996C53.1824 34.339 52.8777 35.0785 52.5513 35.9484C52.2685 36.6879 52.0074 37.4491 51.7898 38.2103H48.0255C46.894 38.2103 47.0028 39.2542 47.0028 39.2542C47.0028 40.2329 49.331 41.1028 50.8977 41.5596C50.7671 42.1903 50.6583 42.8427 50.5713 43.4734C50.4407 44.3434 50.3755 45.2351 50.3319 46.1485C50.3102 47.062 50.3319 47.9972 50.4625 48.9758C50.5278 49.4543 50.6366 49.9545 50.7889 50.4765C50.8759 50.7375 50.9629 50.9985 51.05 51.2594C51.1588 51.5204 51.2893 51.7814 51.4199 52.0424C51.7028 52.5644 52.0944 53.0863 52.5949 53.543C53.0953 53.9998 53.7046 54.3695 54.3356 54.6087C54.662 54.7175 54.9666 54.8045 55.293 54.848C55.5976 54.8915 55.9893 54.9132 56.2721 54.9132C56.8378 54.9132 57.4253 54.8262 57.9693 54.674C58.5133 54.5217 59.0355 54.2607 59.4924 53.978C59.9494 53.6735 60.3628 53.3473 60.7109 52.9776C61.4072 52.2599 61.9077 51.4552 62.3211 50.6505C62.4081 50.4765 62.4952 50.2808 62.5822 50.1068C62.4299 51.7597 62.5169 53.2386 63.1262 53.9998C64.3229 55.4569 65.9766 54.9785 66.1507 53.8258C66.303 52.8036 66.6076 50.781 66.8469 49.2586C67.1298 47.6927 67.4344 46.7575 68.0002 45.4743C68.6747 43.9737 70.5677 42.7122 70.5242 44.4739C70.4154 49.6283 74.2885 49.7153 76.5296 47.4317C76.2033 49.6935 76.1162 51.8032 77.313 53.2603C79.6629 56.0876 83.1661 54.6957 84.9939 53.456C86.6258 55.6744 90.8688 55.1959 92.7183 52.9558C94.0456 54.7827 96.5261 54.9785 98.3538 54.9132C103.598 54.6305 106.862 48.5191 104.49 48.5191Z" fill="black"/>
<path d="M115.214 38.2318C117.172 38.2318 118.804 38.9713 119.87 40.0587L117.716 42.9948C116.954 42.3423 116.236 42.0596 115.497 42.0596C113.212 42.0596 111.776 43.8212 111.776 46.605C111.776 49.3671 113.277 51.1505 115.344 51.1505C116.497 51.1505 117.433 50.6068 118.195 49.9978L120.088 52.9991C118.543 54.3475 116.519 55 114.8 55C110.361 55 106.945 51.9334 106.945 46.6268C106.945 41.2984 110.818 38.2318 115.214 38.2318Z" fill="black"/>
<path d="M127.262 51.2927C128.349 51.2927 129.068 50.7707 129.894 49.9443V47.1387C126.522 47.5954 125.434 48.5524 125.434 49.7703C125.434 50.8142 126.152 51.2927 127.262 51.2927ZM129.894 44.3114C129.807 42.8977 129.089 41.9843 127.392 41.9843C126.043 41.9843 124.694 42.528 123.149 43.4415L121.474 40.3097C123.497 39.0917 125.782 38.2218 128.284 38.2218C132.353 38.2218 134.594 40.5489 134.594 45.4206V54.555H130.743L130.395 52.9238H130.308C128.959 54.12 127.457 54.9465 125.651 54.9465C122.757 54.9465 120.93 52.8151 120.93 50.1183C120.951 46.7907 123.606 44.9639 129.894 44.3114Z" fill="black"/>
<path d="M136.844 54.5867H141.565V32.0334H136.844M143.937 54.5867H148.659V32.0334H143.937M160.866 44.9521C160.866 43.1252 160.104 41.8421 158.211 41.8421C156.731 41.8421 155.448 42.8425 155.121 44.9521H160.866ZM158.124 38.2318C162.65 38.2318 164.891 41.5376 164.891 45.8873C164.891 46.7137 164.804 47.4967 164.695 47.8882H155.165C155.578 50.3023 157.188 51.3679 159.299 51.3679C160.496 51.3679 161.584 51.02 162.737 50.3023L164.303 53.1731C162.672 54.304 160.539 54.9782 158.646 54.9782C154.099 54.9782 150.595 51.8899 150.595 46.605C150.617 41.4288 154.294 38.2318 158.124 38.2318ZM166.828 38.6233H170.679L171.005 41.4288H171.136C172.289 39.2757 174.03 38.2535 175.662 38.2535C176.554 38.2535 177.098 38.384 177.555 38.5798L176.793 42.6685C176.206 42.5163 175.727 42.4075 175.052 42.4075C173.856 42.4075 172.398 43.1905 171.549 45.3436V54.6085H166.828C166.828 54.5867 166.828 38.6233 166.828 38.6233Z" fill="black"/>
</g>
<defs>
<clipPath id="clip0_144_4461">
<rect width="130.556" height="25" fill="white" transform="translate(47 30)"/>
</clipPath>
</defs>
</svg>
