<svg width="41" height="41" viewBox="0 0 41 41" fill="none" xmlns="http://www.w3.org/2000/svg">
<g clip-path="url(#clip0_4631_3134)">
<path d="M20.5 41C31.8218 41 41 31.8218 41 20.5C41 9.17816 31.8218 0 20.5 0C9.17816 0 0 9.17816 0 20.5C0 31.8218 9.17816 41 20.5 41Z" fill="black" fill-opacity="0.04"/>
<path d="M20.5008 40.2313C31.398 40.2313 40.232 31.3973 40.232 20.5C40.232 9.60278 31.398 0.768799 20.5008 0.768799C9.60351 0.768799 0.769531 9.60278 0.769531 20.5C0.769531 31.3973 9.60351 40.2313 20.5008 40.2313Z" stroke="black" stroke-opacity="0.16" stroke-width="1.6"/>
<path d="M27.9276 11.4607C28.948 11.0241 29.9789 12.057 29.5417 13.0773L25.25 23.092C24.8353 24.0597 24.0631 24.8319 23.0954 25.2466L13.0807 29.5384C12.0604 29.9756 11.0276 28.9447 11.4641 27.9243L15.7583 17.907C16.173 16.9399 16.9433 16.1696 17.9104 15.7549L27.9276 11.4607ZM20.5029 18.45C19.3711 18.4503 18.4537 19.3677 18.4534 20.4995C18.4534 21.6315 19.3709 22.5488 20.5029 22.549C21.6351 22.549 22.5524 21.6317 22.5524 20.4995C22.5522 19.3675 21.6349 18.45 20.5029 18.45Z" fill="black" fill-opacity="0.16"/>
</g>
<defs>
<clipPath id="clip0_4631_3134">
<rect width="41" height="41" fill="white"/>
</clipPath>
</defs>
</svg>
