<svg width="488" height="170" viewBox="0 0 488 170" fill="none" xmlns="http://www.w3.org/2000/svg">
<g clip-path="url(#clip0_4613_3024)">
<rect x="0.5" y="0.5" width="282" height="97.0996" rx="16" fill="white"/>
<g clip-path="url(#clip1_4613_3024)">
<mask id="path-3-inside-1_4613_3024" fill="white">
<path d="M0.5 0.5H282.5V48.5H0.5V0.5Z"/>
</mask>
<path d="M0.5 0.5H282.5V48.5H0.5V0.5Z" fill="#28CD41" fill-opacity="0.05"/>
<path d="M282.5 48.5V48H0.5V48.5V49H282.5V48.5Z" fill="#008E15" fill-opacity="0.2" mask="url(#path-3-inside-1_4613_3024)"/>
<path d="M24.5 24.668C25.3271 24.6681 25.9987 25.3389 25.999 26.166C25.999 26.7542 25.6583 27.2616 25.165 27.5068V28.666C25.165 29.0332 24.8671 29.3309 24.5 29.3311C24.1329 29.3309 23.835 29.0332 23.835 28.666V27.5068C23.3418 27.2616 23.002 26.7542 23.002 26.166C23.0023 25.3389 23.6729 24.6681 24.5 24.668Z" fill="#28CD41"/>
<path fill-rule="evenodd" clip-rule="evenodd" d="M24.5 16.335C27.1683 16.3351 29.3311 18.4986 29.3311 21.167V21.4326C29.6047 21.4816 29.8605 21.5559 30.1035 21.6797L30.3213 21.8018C30.8171 22.1058 31.2208 22.5424 31.4863 23.0635L31.5527 23.2061C31.697 23.5424 31.7622 23.903 31.7949 24.3037C31.8317 24.754 31.8311 25.3109 31.8311 26V28C31.8311 28.6891 31.8317 29.246 31.7949 29.6963C31.7622 30.097 31.697 30.4576 31.5527 30.7939L31.4863 30.9365C31.2208 31.4576 30.8171 31.8942 30.3213 32.1982L30.1035 32.3203C29.7268 32.5122 29.3202 32.5915 28.8623 32.6289C28.4122 32.6656 27.8548 32.665 27.166 32.665H21.833C21.1441 32.665 20.5869 32.6657 20.1367 32.6289C19.7362 32.5962 19.3753 32.5309 19.0391 32.3867L18.8965 32.3203C18.3756 32.0548 17.9388 31.6509 17.6348 31.1553L17.5127 30.9365C17.3209 30.5599 17.2415 30.154 17.2041 29.6963C17.1673 29.2461 17.168 28.6891 17.168 28V26C17.168 25.3109 17.1673 24.7539 17.2041 24.3037C17.2415 23.846 17.3209 23.4401 17.5127 23.0635L17.6348 22.8447C17.9388 22.3491 18.3756 21.9452 18.8965 21.6797L19.0391 21.6133C19.2388 21.5276 19.4478 21.4713 19.668 21.4316V21.167C19.668 18.4986 21.8317 16.3351 24.5 16.335ZM21.833 22.665C21.1222 22.665 20.6286 22.6659 20.2451 22.6973C19.9634 22.7203 19.7736 22.7572 19.6299 22.8086L19.5 22.8652C19.1979 23.0193 18.9448 23.2535 18.7686 23.541L18.6982 23.667C18.6178 23.825 18.561 24.0365 18.5303 24.4121C18.4989 24.7956 18.498 25.289 18.498 26V28C18.498 28.711 18.4989 29.2044 18.5303 29.5879C18.561 29.9635 18.6178 30.175 18.6982 30.333L18.7686 30.459C18.9448 30.7465 19.1979 30.9807 19.5 31.1348L19.6299 31.1914C19.7736 31.2428 19.9634 31.2797 20.2451 31.3027C20.6286 31.3341 21.1222 31.335 21.833 31.335H27.166C27.8767 31.335 28.3705 31.334 28.7539 31.3027C29.1293 31.2721 29.3411 31.2151 29.499 31.1348L29.626 31.0645C29.9134 30.8882 30.1478 30.6351 30.3018 30.333L30.3574 30.2031C30.4089 30.0594 30.4467 29.8698 30.4697 29.5879C30.5011 29.2044 30.501 28.711 30.501 28V26C30.501 25.289 30.5011 24.7956 30.4697 24.4121C30.4467 24.1302 30.4089 23.9406 30.3574 23.7969L30.3018 23.667C30.1478 23.3649 29.9134 23.1118 29.626 22.9355L29.499 22.8652C29.3411 22.7849 29.1293 22.7279 28.7539 22.6973C28.3705 22.666 27.8767 22.665 27.166 22.665H21.833ZM24.5 17.665C22.5662 17.6652 20.998 19.2332 20.998 21.167V21.3379C21.2522 21.3349 21.5298 21.335 21.833 21.335H27.166C27.469 21.335 27.7469 21.3349 28.001 21.3379V21.167C28.001 19.2332 26.4338 17.6652 24.5 17.665Z" fill="#28CD41"/>
<path d="M49.7295 29.7324C48.8363 29.7324 48.0638 29.5228 47.4121 29.1035C46.7604 28.6842 46.2568 28.0895 45.9014 27.3193C45.5505 26.5492 45.375 25.6354 45.375 24.5781V24.5645C45.375 23.5026 45.5505 22.5866 45.9014 21.8164C46.2568 21.0462 46.7581 20.4515 47.4053 20.0322C48.057 19.613 48.8294 19.4033 49.7227 19.4033C50.4154 19.4033 51.0443 19.54 51.6094 19.8135C52.179 20.0824 52.6484 20.4583 53.0176 20.9414C53.3867 21.4199 53.6191 21.9736 53.7148 22.6025L53.708 22.6162H52.4707L52.4639 22.6025C52.3545 22.1787 52.1699 21.8141 51.9102 21.5088C51.6504 21.1989 51.3337 20.9596 50.96 20.791C50.5908 20.6224 50.1784 20.5381 49.7227 20.5381C49.0938 20.5381 48.5469 20.7021 48.082 21.0303C47.6217 21.3584 47.2663 21.8232 47.0156 22.4248C46.765 23.0264 46.6396 23.7396 46.6396 24.5645V24.5781C46.6396 25.3984 46.765 26.1094 47.0156 26.7109C47.2663 27.3125 47.6217 27.7773 48.082 28.1055C48.5469 28.4336 49.096 28.5977 49.7295 28.5977C50.1898 28.5977 50.6068 28.5247 50.9805 28.3789C51.3542 28.2285 51.6686 28.0166 51.9238 27.7432C52.179 27.4652 52.3568 27.137 52.457 26.7588L52.4707 26.7451H53.7148V26.7588C53.6055 27.3604 53.3685 27.8844 53.0039 28.3311C52.6393 28.7731 52.1768 29.1172 51.6162 29.3633C51.0602 29.6094 50.4313 29.7324 49.7295 29.7324ZM58.6572 29.6299C57.96 29.6299 57.3561 29.4772 56.8457 29.1719C56.3398 28.862 55.9479 28.4222 55.6699 27.8525C55.3965 27.2829 55.2598 26.6061 55.2598 25.8223V25.8086C55.2598 25.0202 55.3965 24.3411 55.6699 23.7715C55.9479 23.2018 56.3398 22.7643 56.8457 22.459C57.3561 22.1536 57.96 22.001 58.6572 22.001C59.359 22.001 59.9629 22.1536 60.4688 22.459C60.9746 22.7643 61.3643 23.2018 61.6377 23.7715C61.9157 24.3411 62.0547 25.0202 62.0547 25.8086V25.8223C62.0547 26.6061 61.9157 27.2829 61.6377 27.8525C61.3643 28.4222 60.9746 28.862 60.4688 29.1719C59.9629 29.4772 59.359 29.6299 58.6572 29.6299ZM58.6572 28.5771C59.1221 28.5771 59.5163 28.4678 59.8398 28.249C60.1634 28.0303 60.4095 27.7158 60.5781 27.3057C60.7513 26.8955 60.8379 26.401 60.8379 25.8223V25.8086C60.8379 25.2253 60.7513 24.7285 60.5781 24.3184C60.4095 23.9082 60.1634 23.596 59.8398 23.3818C59.5163 23.1631 59.1221 23.0537 58.6572 23.0537C58.1924 23.0537 57.7982 23.1631 57.4746 23.3818C57.151 23.596 56.9027 23.9082 56.7295 24.3184C56.5609 24.7285 56.4766 25.2253 56.4766 25.8086V25.8223C56.4766 26.401 56.5609 26.8955 56.7295 27.3057C56.9027 27.7158 57.151 28.0303 57.4746 28.249C57.7982 28.4678 58.1924 28.5771 58.6572 28.5771ZM63.9004 29.5V22.1309H65.0898V23.2383H65.1992C65.3861 22.8464 65.6549 22.5433 66.0059 22.3291C66.3568 22.1104 66.8034 22.001 67.3457 22.001C68.1751 22.001 68.8109 22.238 69.2529 22.7119C69.6995 23.1813 69.9229 23.8535 69.9229 24.7285V29.5H68.7334V25.0156C68.7334 24.3503 68.5921 23.8581 68.3096 23.5391C68.0316 23.2155 67.5986 23.0537 67.0107 23.0537C66.6188 23.0537 66.2793 23.138 65.9922 23.3066C65.7051 23.4753 65.4818 23.7145 65.3223 24.0244C65.1673 24.3343 65.0898 24.7057 65.0898 25.1387V29.5H63.9004ZM72.0762 29.5V22.1309H73.2656V23.2383H73.375C73.5618 22.8464 73.8307 22.5433 74.1816 22.3291C74.5326 22.1104 74.9792 22.001 75.5215 22.001C76.3509 22.001 76.9867 22.238 77.4287 22.7119C77.8753 23.1813 78.0986 23.8535 78.0986 24.7285V29.5H76.9092V25.0156C76.9092 24.3503 76.7679 23.8581 76.4854 23.5391C76.2074 23.2155 75.7744 23.0537 75.1865 23.0537C74.7946 23.0537 74.4551 23.138 74.168 23.3066C73.8809 23.4753 73.6576 23.7145 73.498 24.0244C73.3431 24.3343 73.2656 24.7057 73.2656 25.1387V29.5H72.0762ZM83.2598 29.6299C82.5579 29.6299 81.9541 29.4749 81.4482 29.165C80.9469 28.8551 80.5596 28.4176 80.2861 27.8525C80.0173 27.2829 79.8828 26.613 79.8828 25.8428V25.8359C79.8828 25.0749 80.0173 24.4072 80.2861 23.833C80.5596 23.2588 80.9447 22.8099 81.4414 22.4863C81.9382 22.1628 82.5192 22.001 83.1846 22.001C83.8545 22.001 84.4287 22.1559 84.9072 22.4658C85.3903 22.7757 85.7594 23.2087 86.0146 23.7646C86.2744 24.3161 86.4043 24.9587 86.4043 25.6924V26.1572H80.498V25.207H85.7959L85.208 26.0752V25.6035C85.208 25.0247 85.1214 24.5485 84.9482 24.1748C84.7751 23.8011 84.5358 23.5231 84.2305 23.3408C83.9251 23.154 83.5742 23.0605 83.1777 23.0605C82.7812 23.0605 82.4258 23.1585 82.1113 23.3545C81.8014 23.5459 81.5553 23.8307 81.373 24.209C81.1908 24.5872 81.0996 25.0521 81.0996 25.6035V26.0752C81.0996 26.5993 81.1885 27.0482 81.3662 27.4219C81.5439 27.791 81.7969 28.0758 82.125 28.2764C82.4531 28.4723 82.8405 28.5703 83.2871 28.5703C83.6198 28.5703 83.9092 28.5247 84.1553 28.4336C84.4014 28.3424 84.6042 28.2262 84.7637 28.085C84.9232 27.9437 85.0348 27.8001 85.0986 27.6543L85.126 27.5928H86.3154L86.3018 27.6475C86.238 27.8981 86.124 28.1419 85.96 28.3789C85.8005 28.6113 85.5931 28.8232 85.3379 29.0146C85.0827 29.2015 84.7796 29.3519 84.4287 29.4658C84.0824 29.5752 83.6927 29.6299 83.2598 29.6299ZM91.2646 29.6299C90.5765 29.6299 89.9795 29.4727 89.4736 29.1582C88.9678 28.8438 88.5758 28.3994 88.2979 27.8252C88.0199 27.251 87.8809 26.5742 87.8809 25.7949V25.7812C87.8809 25.0156 88.0176 24.3503 88.291 23.7852C88.569 23.2201 88.9609 22.7826 89.4668 22.4727C89.9727 22.1582 90.5697 22.001 91.2578 22.001C91.8548 22.001 92.3698 22.1058 92.8027 22.3154C93.2357 22.5251 93.582 22.8076 93.8418 23.1631C94.1016 23.514 94.2679 23.9082 94.3408 24.3457L94.3477 24.3867H93.165L93.1582 24.3662C93.0671 24.0016 92.8597 23.6917 92.5361 23.4365C92.2126 23.1813 91.7865 23.0537 91.2578 23.0537C90.8158 23.0537 90.4329 23.1654 90.1094 23.3887C89.7858 23.612 89.5352 23.9287 89.3574 24.3389C89.1842 24.7445 89.0977 25.2253 89.0977 25.7812V25.7949C89.0977 26.36 89.1865 26.8522 89.3643 27.2715C89.542 27.6862 89.7926 28.0075 90.1162 28.2354C90.4398 28.4632 90.8203 28.5771 91.2578 28.5771C91.7546 28.5771 92.1602 28.4701 92.4746 28.2559C92.7891 28.0417 93.0146 27.7295 93.1514 27.3193L93.165 27.2783L94.3408 27.2715L94.3271 27.3467C94.2269 27.7887 94.0492 28.1829 93.7939 28.5293C93.5387 28.8711 93.2015 29.14 92.7822 29.3359C92.363 29.5319 91.8571 29.6299 91.2646 29.6299ZM98.8389 29.5547C98.0824 29.5547 97.5332 29.402 97.1914 29.0967C96.8542 28.7913 96.6855 28.2878 96.6855 27.5859V23.1152H95.5234V22.1309H96.6855V20.2236H97.916V22.1309H99.5293V23.1152H97.916V27.2852C97.916 27.7181 97.998 28.0303 98.1621 28.2217C98.3262 28.4085 98.5996 28.502 98.9824 28.502C99.0872 28.502 99.1761 28.4997 99.249 28.4951C99.3265 28.4906 99.4199 28.4837 99.5293 28.4746V29.4863C99.4154 29.5046 99.3014 29.5205 99.1875 29.5342C99.0736 29.5479 98.9574 29.5547 98.8389 29.5547ZM101.334 29.5V22.1309H102.523V29.5H101.334ZM101.936 20.709C101.712 20.709 101.519 20.6292 101.354 20.4697C101.195 20.3057 101.115 20.112 101.115 19.8887C101.115 19.6608 101.195 19.4671 101.354 19.3076C101.519 19.1481 101.712 19.0684 101.936 19.0684C102.163 19.0684 102.357 19.1481 102.517 19.3076C102.676 19.4671 102.756 19.6608 102.756 19.8887C102.756 20.112 102.676 20.3057 102.517 20.4697C102.357 20.6292 102.163 20.709 101.936 20.709ZM107.794 29.6299C107.097 29.6299 106.493 29.4772 105.982 29.1719C105.477 28.862 105.085 28.4222 104.807 27.8525C104.533 27.2829 104.396 26.6061 104.396 25.8223V25.8086C104.396 25.0202 104.533 24.3411 104.807 23.7715C105.085 23.2018 105.477 22.7643 105.982 22.459C106.493 22.1536 107.097 22.001 107.794 22.001C108.496 22.001 109.1 22.1536 109.605 22.459C110.111 22.7643 110.501 23.2018 110.774 23.7715C111.052 24.3411 111.191 25.0202 111.191 25.8086V25.8223C111.191 26.6061 111.052 27.2829 110.774 27.8525C110.501 28.4222 110.111 28.862 109.605 29.1719C109.1 29.4772 108.496 29.6299 107.794 29.6299ZM107.794 28.5771C108.259 28.5771 108.653 28.4678 108.977 28.249C109.3 28.0303 109.546 27.7158 109.715 27.3057C109.888 26.8955 109.975 26.401 109.975 25.8223V25.8086C109.975 25.2253 109.888 24.7285 109.715 24.3184C109.546 23.9082 109.3 23.596 108.977 23.3818C108.653 23.1631 108.259 23.0537 107.794 23.0537C107.329 23.0537 106.935 23.1631 106.611 23.3818C106.288 23.596 106.039 23.9082 105.866 24.3184C105.698 24.7285 105.613 25.2253 105.613 25.8086V25.8223C105.613 26.401 105.698 26.8955 105.866 27.3057C106.039 27.7158 106.288 28.0303 106.611 28.249C106.935 28.4678 107.329 28.5771 107.794 28.5771ZM113.037 29.5V22.1309H114.227V23.2383H114.336C114.523 22.8464 114.792 22.5433 115.143 22.3291C115.493 22.1104 115.94 22.001 116.482 22.001C117.312 22.001 117.948 22.238 118.39 22.7119C118.836 23.1813 119.06 23.8535 119.06 24.7285V29.5H117.87V25.0156C117.87 24.3503 117.729 23.8581 117.446 23.5391C117.168 23.2155 116.735 23.0537 116.147 23.0537C115.756 23.0537 115.416 23.138 115.129 23.3066C114.842 23.4753 114.618 23.7145 114.459 24.0244C114.304 24.3343 114.227 24.7057 114.227 25.1387V29.5H113.037ZM125.178 29.5V22.1309H126.367V29.5H125.178ZM125.779 20.709C125.556 20.709 125.362 20.6292 125.198 20.4697C125.039 20.3057 124.959 20.112 124.959 19.8887C124.959 19.6608 125.039 19.4671 125.198 19.3076C125.362 19.1481 125.556 19.0684 125.779 19.0684C126.007 19.0684 126.201 19.1481 126.36 19.3076C126.52 19.4671 126.6 19.6608 126.6 19.8887C126.6 20.112 126.52 20.3057 126.36 20.4697C126.201 20.6292 126.007 20.709 125.779 20.709ZM131.139 29.6299C130.592 29.6299 130.109 29.5479 129.689 29.3838C129.27 29.2152 128.933 28.9805 128.678 28.6797C128.427 28.3789 128.279 28.0257 128.233 27.6201H129.45C129.55 27.9255 129.746 28.1715 130.038 28.3584C130.33 28.5452 130.71 28.6387 131.18 28.6387C131.512 28.6387 131.804 28.5908 132.055 28.4951C132.31 28.3949 132.51 28.2604 132.656 28.0918C132.802 27.9186 132.875 27.7204 132.875 27.4971V27.4834C132.875 27.2327 132.775 27.0208 132.574 26.8477C132.374 26.6699 132.046 26.5264 131.59 26.417L130.448 26.1436C129.988 26.0342 129.61 25.8929 129.313 25.7197C129.017 25.542 128.799 25.3255 128.657 25.0703C128.516 24.8105 128.445 24.5052 128.445 24.1543V24.1475C128.445 23.7373 128.564 23.3704 128.801 23.0469C129.042 22.7233 129.37 22.4681 129.785 22.2812C130.2 22.0944 130.667 22.001 131.187 22.001C131.701 22.001 132.157 22.083 132.554 22.2471C132.955 22.4066 133.276 22.6344 133.518 22.9307C133.764 23.2269 133.914 23.5755 133.969 23.9766H132.8C132.722 23.6849 132.545 23.4479 132.267 23.2656C131.989 23.0833 131.626 22.9922 131.18 22.9922C130.888 22.9922 130.628 23.04 130.4 23.1357C130.173 23.2269 129.993 23.3545 129.86 23.5186C129.728 23.6826 129.662 23.874 129.662 24.0928V24.1064C129.662 24.2705 129.705 24.4163 129.792 24.5439C129.879 24.6715 130.013 24.7832 130.195 24.8789C130.378 24.9746 130.612 25.0589 130.899 25.1318L132.034 25.4053C132.727 25.5739 133.242 25.8154 133.579 26.1299C133.921 26.4443 134.092 26.8659 134.092 27.3945V27.4082C134.092 27.8457 133.962 28.2331 133.702 28.5703C133.442 28.903 133.089 29.1628 132.643 29.3496C132.201 29.5365 131.699 29.6299 131.139 29.6299ZM142.404 29.6299C141.857 29.6299 141.374 29.5479 140.955 29.3838C140.536 29.2152 140.199 28.9805 139.943 28.6797C139.693 28.3789 139.545 28.0257 139.499 27.6201H140.716C140.816 27.9255 141.012 28.1715 141.304 28.3584C141.595 28.5452 141.976 28.6387 142.445 28.6387C142.778 28.6387 143.07 28.5908 143.32 28.4951C143.576 28.3949 143.776 28.2604 143.922 28.0918C144.068 27.9186 144.141 27.7204 144.141 27.4971V27.4834C144.141 27.2327 144.04 27.0208 143.84 26.8477C143.639 26.6699 143.311 26.5264 142.855 26.417L141.714 26.1436C141.254 26.0342 140.875 25.8929 140.579 25.7197C140.283 25.542 140.064 25.3255 139.923 25.0703C139.782 24.8105 139.711 24.5052 139.711 24.1543V24.1475C139.711 23.7373 139.829 23.3704 140.066 23.0469C140.308 22.7233 140.636 22.4681 141.051 22.2812C141.465 22.0944 141.933 22.001 142.452 22.001C142.967 22.001 143.423 22.083 143.819 22.2471C144.22 22.4066 144.542 22.6344 144.783 22.9307C145.029 23.2269 145.18 23.5755 145.234 23.9766H144.065C143.988 23.6849 143.81 23.4479 143.532 23.2656C143.254 23.0833 142.892 22.9922 142.445 22.9922C142.154 22.9922 141.894 23.04 141.666 23.1357C141.438 23.2269 141.258 23.3545 141.126 23.5186C140.994 23.6826 140.928 23.874 140.928 24.0928V24.1064C140.928 24.2705 140.971 24.4163 141.058 24.5439C141.144 24.6715 141.279 24.7832 141.461 24.8789C141.643 24.9746 141.878 25.0589 142.165 25.1318L143.3 25.4053C143.993 25.5739 144.507 25.8154 144.845 26.1299C145.187 26.4443 145.357 26.8659 145.357 27.3945V27.4082C145.357 27.8457 145.228 28.2331 144.968 28.5703C144.708 28.903 144.355 29.1628 143.908 29.3496C143.466 29.5365 142.965 29.6299 142.404 29.6299ZM150.211 29.6299C149.509 29.6299 148.905 29.4749 148.399 29.165C147.898 28.8551 147.511 28.4176 147.237 27.8525C146.968 27.2829 146.834 26.613 146.834 25.8428V25.8359C146.834 25.0749 146.968 24.4072 147.237 23.833C147.511 23.2588 147.896 22.8099 148.393 22.4863C148.889 22.1628 149.47 22.001 150.136 22.001C150.806 22.001 151.38 22.1559 151.858 22.4658C152.341 22.7757 152.711 23.2087 152.966 23.7646C153.226 24.3161 153.355 24.9587 153.355 25.6924V26.1572H147.449V25.207H152.747L152.159 26.0752V25.6035C152.159 25.0247 152.073 24.5485 151.899 24.1748C151.726 23.8011 151.487 23.5231 151.182 23.3408C150.876 23.154 150.525 23.0605 150.129 23.0605C149.732 23.0605 149.377 23.1585 149.062 23.3545C148.753 23.5459 148.507 23.8307 148.324 24.209C148.142 24.5872 148.051 25.0521 148.051 25.6035V26.0752C148.051 26.5993 148.14 27.0482 148.317 27.4219C148.495 27.791 148.748 28.0758 149.076 28.2764C149.404 28.4723 149.792 28.5703 150.238 28.5703C150.571 28.5703 150.86 28.5247 151.106 28.4336C151.353 28.3424 151.555 28.2262 151.715 28.085C151.874 27.9437 151.986 27.8001 152.05 27.6543L152.077 27.5928H153.267L153.253 27.6475C153.189 27.8981 153.075 28.1419 152.911 28.3789C152.752 28.6113 152.544 28.8232 152.289 29.0146C152.034 29.2015 151.731 29.3519 151.38 29.4658C151.034 29.5752 150.644 29.6299 150.211 29.6299ZM158.216 29.6299C157.528 29.6299 156.931 29.4727 156.425 29.1582C155.919 28.8438 155.527 28.3994 155.249 27.8252C154.971 27.251 154.832 26.5742 154.832 25.7949V25.7812C154.832 25.0156 154.969 24.3503 155.242 23.7852C155.52 23.2201 155.912 22.7826 156.418 22.4727C156.924 22.1582 157.521 22.001 158.209 22.001C158.806 22.001 159.321 22.1058 159.754 22.3154C160.187 22.5251 160.533 22.8076 160.793 23.1631C161.053 23.514 161.219 23.9082 161.292 24.3457L161.299 24.3867H160.116L160.109 24.3662C160.018 24.0016 159.811 23.6917 159.487 23.4365C159.164 23.1813 158.738 23.0537 158.209 23.0537C157.767 23.0537 157.384 23.1654 157.061 23.3887C156.737 23.612 156.486 23.9287 156.309 24.3389C156.135 24.7445 156.049 25.2253 156.049 25.7812V25.7949C156.049 26.36 156.138 26.8522 156.315 27.2715C156.493 27.6862 156.744 28.0075 157.067 28.2354C157.391 28.4632 157.771 28.5771 158.209 28.5771C158.706 28.5771 159.111 28.4701 159.426 28.2559C159.74 28.0417 159.966 27.7295 160.103 27.3193L160.116 27.2783L161.292 27.2715L161.278 27.3467C161.178 27.7887 161 28.1829 160.745 28.5293C160.49 28.8711 160.153 29.14 159.733 29.3359C159.314 29.5319 158.808 29.6299 158.216 29.6299ZM165.503 29.6299C164.947 29.6299 164.48 29.5251 164.102 29.3154C163.723 29.1012 163.438 28.7913 163.247 28.3857C163.06 27.9756 162.967 27.4811 162.967 26.9023V22.1309H164.156V26.6152C164.156 27.276 164.284 27.7682 164.539 28.0918C164.799 28.4154 165.223 28.5771 165.811 28.5771C166.134 28.5771 166.419 28.5293 166.665 28.4336C166.916 28.3379 167.125 28.2012 167.294 28.0234C167.463 27.8411 167.588 27.6224 167.67 27.3672C167.757 27.1074 167.8 26.8158 167.8 26.4922V22.1309H168.989V29.5H167.8V28.3994H167.69C167.572 28.6592 167.41 28.8825 167.205 29.0693C167 29.2516 166.754 29.3906 166.467 29.4863C166.184 29.582 165.863 29.6299 165.503 29.6299ZM171.211 29.5V22.1309H172.4V23.2246H172.51C172.651 22.8372 172.89 22.5365 173.228 22.3223C173.565 22.1081 173.982 22.001 174.479 22.001C174.592 22.001 174.704 22.0078 174.813 22.0215C174.927 22.0306 175.014 22.0397 175.073 22.0488V23.2041C174.95 23.1813 174.829 23.1654 174.711 23.1562C174.597 23.1426 174.474 23.1357 174.342 23.1357C173.964 23.1357 173.629 23.2109 173.337 23.3613C173.045 23.5117 172.815 23.7214 172.646 23.9902C172.482 24.2591 172.4 24.5736 172.4 24.9336V29.5H171.211ZM179.346 29.6299C178.644 29.6299 178.04 29.4749 177.534 29.165C177.033 28.8551 176.646 28.4176 176.372 27.8525C176.103 27.2829 175.969 26.613 175.969 25.8428V25.8359C175.969 25.0749 176.103 24.4072 176.372 23.833C176.646 23.2588 177.031 22.8099 177.527 22.4863C178.024 22.1628 178.605 22.001 179.271 22.001C179.94 22.001 180.515 22.1559 180.993 22.4658C181.476 22.7757 181.845 23.2087 182.101 23.7646C182.36 24.3161 182.49 24.9587 182.49 25.6924V26.1572H176.584V25.207H181.882L181.294 26.0752V25.6035C181.294 25.0247 181.207 24.5485 181.034 24.1748C180.861 23.8011 180.622 23.5231 180.316 23.3408C180.011 23.154 179.66 23.0605 179.264 23.0605C178.867 23.0605 178.512 23.1585 178.197 23.3545C177.887 23.5459 177.641 23.8307 177.459 24.209C177.277 24.5872 177.186 25.0521 177.186 25.6035V26.0752C177.186 26.5993 177.274 27.0482 177.452 27.4219C177.63 27.791 177.883 28.0758 178.211 28.2764C178.539 28.4723 178.926 28.5703 179.373 28.5703C179.706 28.5703 179.995 28.5247 180.241 28.4336C180.487 28.3424 180.69 28.2262 180.85 28.085C181.009 27.9437 181.121 27.8001 181.185 27.6543L181.212 27.5928H182.401L182.388 27.6475C182.324 27.8981 182.21 28.1419 182.046 28.3789C181.886 28.6113 181.679 28.8232 181.424 29.0146C181.169 29.2015 180.866 29.3519 180.515 29.4658C180.168 29.5752 179.779 29.6299 179.346 29.6299Z" fill="#28CD41"/>
<path d="M263.923 18.6055C264.141 18.2863 264.576 18.2041 264.895 18.4219C265.215 18.6397 265.297 19.0752 265.079 19.3945L257.579 30.3945C257.462 30.5666 257.274 30.6778 257.066 30.6973C256.859 30.7167 256.653 30.6425 256.506 30.4951L252.006 25.9951L251.916 25.8848C251.737 25.6131 251.767 25.244 252.006 25.0049C252.245 24.7658 252.614 24.7359 252.886 24.915L252.996 25.0049L256.898 28.9072L263.923 18.6055Z" fill="#28CD41"/>
<path fill-rule="evenodd" clip-rule="evenodd" d="M23.3525 65.5C24.4337 65.5 25.4202 65.9444 26.1406 66.6445C26.5487 66.5057 26.957 66.4434 27.3799 66.4434C29.5316 66.4434 31.3945 68.1778 31.3945 70.4941C31.3945 70.825 31.3484 71.1551 31.2725 71.4844C32.1258 72.2762 32.5996 73.3691 32.5996 74.4941C32.5995 76.2172 31.4569 77.9086 29.6738 78.3896C29.2928 80.2213 27.6797 81.5996 25.7471 81.5996C24.6653 81.5996 23.6784 81.1547 22.958 80.4541C22.5502 80.5928 22.1424 80.6552 21.7197 80.6553C19.568 80.6553 17.7051 78.9217 17.7051 76.6055C17.7051 76.2743 17.7502 75.9438 17.8262 75.6143C16.9735 74.8225 16.5 73.7301 16.5 72.6055C16.5001 70.8826 17.6421 69.1902 19.4248 68.709C19.8061 66.8777 21.4201 65.5 23.3525 65.5ZM27.3984 77.6455C27.3984 77.7649 27.373 77.8701 27.3203 77.9609C27.2676 78.0517 27.189 78.1251 27.0879 78.1846L24.0312 79.9688C24.5334 80.3343 25.1179 80.54 25.7471 80.54C27.4803 80.54 28.7733 79.2652 28.7734 77.582V74.0615C28.7734 74.0038 28.7622 73.956 28.7412 73.917C28.7309 73.8978 28.7178 73.8799 28.7012 73.8633L28.6396 73.8174L27.3984 73.0918V77.6455ZM22.458 78.0889C22.3565 78.1486 22.2528 78.1797 22.1475 78.1797C22.0421 78.1797 21.9384 78.1485 21.8369 78.0889L18.7783 76.3027C18.7662 76.4051 18.7569 76.5054 18.7568 76.6055C18.7568 78.2576 20.0499 79.5957 21.8145 79.5957C22.3146 79.5957 22.797 79.4856 23.2002 79.251L26.2295 77.4902C26.2777 77.4624 26.3103 77.4292 26.3311 77.3906C26.352 77.3516 26.3633 77.3039 26.3633 77.2461V75.8125L22.458 78.0889ZM26.9521 70.0801C26.9116 70.0801 26.8684 70.0923 26.8184 70.1211L25.5918 70.8301L29.499 73.123C29.5999 73.1825 29.6779 73.256 29.7305 73.3467C29.7832 73.4375 29.8086 73.5428 29.8086 73.6621V77.2158C30.8745 76.7431 31.5477 75.6653 31.5479 74.4941C31.5479 73.5194 31.04 72.5168 30.2715 71.9814L30.1143 71.8809L27.0859 70.1211C27.0359 70.0923 26.9927 70.0801 26.9521 70.0801ZM19.3066 69.8838C18.2396 70.3561 17.5508 71.4199 17.5508 72.6064C17.551 73.6461 18.1299 74.7165 18.9854 75.2188L22.0137 76.9785C22.0637 77.0074 22.1069 77.0195 22.1475 77.0195C22.188 77.0195 22.2312 77.0073 22.2812 76.9785L23.5068 76.2686L19.6162 73.9932C19.5154 73.9338 19.4374 73.8601 19.3848 73.7695C19.3321 73.6787 19.3067 73.5733 19.3066 73.4541V69.8838ZM22.7363 72.459V74.6396L24.5498 75.668L26.3633 74.6396V72.459L24.5498 71.4307L22.7363 72.459ZM23.3525 66.5596C21.6195 66.5596 20.342 67.834 20.3418 69.5176V73.0381C20.3418 73.0958 20.3531 73.1436 20.374 73.1826C20.3948 73.2212 20.4274 73.2544 20.4756 73.2822L20.4766 73.2832L21.7012 74.0059V69.4541C21.7012 69.3348 21.7266 69.2295 21.7793 69.1387C21.8319 69.0481 21.9099 68.9744 22.0107 68.915L25.0674 67.1299C24.5655 66.7648 23.9812 66.5596 23.3525 66.5596ZM27.2852 67.5039C26.7851 67.5039 26.3026 67.6141 25.8994 67.8486L22.8701 69.6094C22.8219 69.6372 22.7894 69.6704 22.7686 69.709C22.7476 69.748 22.7364 69.7958 22.7363 69.8535V71.2861L26.6416 68.9951C26.7432 68.9354 26.8468 68.9043 26.9521 68.9043C27.0575 68.9043 27.1611 68.9354 27.2627 68.9951L30.332 70.8086C30.3396 70.7107 30.3428 70.614 30.3428 70.5254C30.3425 68.9666 29.1576 67.5039 27.2852 67.5039Z" fill="black"/>
<path d="M49.8311 78.7822C48.9378 78.7822 48.1654 78.5726 47.5137 78.1533C46.862 77.734 46.3584 77.1393 46.0029 76.3691C45.652 75.599 45.4766 74.6852 45.4766 73.6279V73.6143C45.4766 72.5524 45.652 71.6364 46.0029 70.8662C46.3584 70.096 46.8597 69.5013 47.5068 69.082C48.1585 68.6628 48.931 68.4531 49.8242 68.4531C50.5169 68.4531 51.1458 68.5898 51.7109 68.8633C52.2806 69.1322 52.75 69.5081 53.1191 69.9912C53.4883 70.4697 53.7207 71.0234 53.8164 71.6523L53.8096 71.666H52.5723L52.5654 71.6523C52.4561 71.2285 52.2715 70.8639 52.0117 70.5586C51.752 70.2487 51.4352 70.0094 51.0615 69.8408C50.6924 69.6722 50.2799 69.5879 49.8242 69.5879C49.1953 69.5879 48.6484 69.752 48.1836 70.0801C47.7233 70.4082 47.3678 70.873 47.1172 71.4746C46.8665 72.0762 46.7412 72.7894 46.7412 73.6143V73.6279C46.7412 74.4482 46.8665 75.1592 47.1172 75.7607C47.3678 76.3623 47.7233 76.8271 48.1836 77.1553C48.6484 77.4834 49.1976 77.6475 49.8311 77.6475C50.2913 77.6475 50.7083 77.5745 51.082 77.4287C51.4557 77.2783 51.7702 77.0664 52.0254 76.793C52.2806 76.515 52.4583 76.1868 52.5586 75.8086L52.5723 75.7949H53.8164V75.8086C53.707 76.4102 53.4701 76.9342 53.1055 77.3809C52.7409 77.8229 52.2783 78.167 51.7178 78.4131C51.1618 78.6592 50.5329 78.7822 49.8311 78.7822ZM55.7988 78.5498V68.2549H56.9883V72.2881H57.0977C57.2845 71.8962 57.5534 71.5931 57.9043 71.3789C58.2552 71.1602 58.7018 71.0508 59.2441 71.0508C59.7956 71.0508 60.2627 71.1579 60.6455 71.3721C61.0283 71.5817 61.32 71.8893 61.5205 72.2949C61.721 72.7005 61.8213 73.195 61.8213 73.7783V78.5498H60.6318V74.0654C60.6318 73.4001 60.4906 72.9079 60.208 72.5889C59.93 72.2653 59.4971 72.1035 58.9092 72.1035C58.5173 72.1035 58.1777 72.1878 57.8906 72.3564C57.6035 72.5251 57.3802 72.7643 57.2207 73.0742C57.0658 73.3841 56.9883 73.7555 56.9883 74.1885V78.5498H55.7988ZM65.998 78.6797C65.5332 78.6797 65.1139 78.5908 64.7402 78.4131C64.3711 78.2354 64.0771 77.9824 63.8584 77.6543C63.6442 77.3262 63.5371 76.9388 63.5371 76.4922V76.4785C63.5371 76.041 63.6419 75.6673 63.8516 75.3574C64.0612 75.043 64.3665 74.7969 64.7676 74.6191C65.1686 74.4414 65.654 74.3366 66.2236 74.3047L68.9307 74.1406V75.0908L66.3672 75.2549C65.8066 75.2868 65.3965 75.403 65.1367 75.6035C64.8815 75.804 64.7539 76.0866 64.7539 76.4512V76.4648C64.7539 76.8385 64.8952 77.1302 65.1777 77.3398C65.4603 77.5449 65.8158 77.6475 66.2441 77.6475C66.6497 77.6475 67.0098 77.5677 67.3242 77.4082C67.6387 77.2441 67.8848 77.0231 68.0625 76.7451C68.2448 76.4671 68.3359 76.1527 68.3359 75.8018V73.5049C68.3359 73.0492 68.1969 72.7028 67.9189 72.4658C67.6455 72.2243 67.2331 72.1035 66.6816 72.1035C66.2396 72.1035 65.8773 72.1833 65.5947 72.3428C65.3122 72.4977 65.123 72.7188 65.0273 73.0059L65.0205 73.0264H63.8311L63.8379 72.9854C63.9017 72.598 64.0612 72.2607 64.3164 71.9736C64.5762 71.682 64.9111 71.4564 65.3213 71.2969C65.7314 71.1328 66.1986 71.0508 66.7227 71.0508C67.3242 71.0508 67.8324 71.1488 68.2471 71.3447C68.6663 71.5407 68.9831 71.8232 69.1973 72.1924C69.416 72.557 69.5254 72.9945 69.5254 73.5049V78.5498H68.3359V77.4629H68.2266C68.0716 77.7227 67.8825 77.9437 67.6592 78.126C67.4404 78.3083 67.1921 78.4473 66.9141 78.543C66.6361 78.6341 66.3307 78.6797 65.998 78.6797ZM74.3174 78.6045C73.5609 78.6045 73.0117 78.4518 72.6699 78.1465C72.3327 77.8411 72.1641 77.3376 72.1641 76.6357V72.165H71.002V71.1807H72.1641V69.2734H73.3945V71.1807H75.0078V72.165H73.3945V76.335C73.3945 76.7679 73.4766 77.0801 73.6406 77.2715C73.8047 77.4583 74.0781 77.5518 74.4609 77.5518C74.5658 77.5518 74.6546 77.5495 74.7275 77.5449C74.805 77.5404 74.8984 77.5335 75.0078 77.5244V78.5361C74.8939 78.5544 74.7799 78.5703 74.666 78.584C74.5521 78.5977 74.4359 78.6045 74.3174 78.6045ZM81.0234 78.7822C80.3398 78.7822 79.7223 78.6615 79.1709 78.4199C78.624 78.1784 78.1546 77.832 77.7627 77.3809C77.3753 76.9297 77.0768 76.3874 76.8672 75.7539C76.6576 75.1204 76.5527 74.4095 76.5527 73.6211V73.6074C76.5527 72.5684 76.7373 71.6637 77.1064 70.8936C77.4756 70.1188 77.9951 69.5195 78.665 69.0957C79.3395 68.6673 80.1257 68.4531 81.0234 68.4531C81.7526 68.4531 82.402 68.583 82.9717 68.8428C83.5459 69.098 84.0176 69.458 84.3867 69.9229C84.7604 70.3877 85.0111 70.9323 85.1387 71.5566L85.1523 71.625H83.9082L83.8877 71.5566C83.6872 70.9186 83.3431 70.431 82.8555 70.0938C82.3678 69.7565 81.7572 69.5879 81.0234 69.5879C80.3717 69.5879 79.8044 69.7542 79.3213 70.0869C78.8428 70.415 78.4714 70.8799 78.207 71.4814C77.9427 72.083 77.8105 72.7917 77.8105 73.6074V73.6211C77.8105 74.2409 77.8835 74.7992 78.0293 75.2959C78.1797 75.7926 78.3939 76.2165 78.6719 76.5674C78.9544 76.9137 79.2939 77.1803 79.6904 77.3672C80.0869 77.554 80.5335 77.6475 81.0303 77.6475C81.6182 77.6475 82.1331 77.5312 82.5752 77.2988C83.0218 77.0618 83.3682 76.7337 83.6143 76.3145C83.8604 75.8952 83.9834 75.4076 83.9834 74.8516V74.6123H81.2148V73.5322H85.2139V74.7354C85.2139 75.3415 85.1136 75.8929 84.9131 76.3896C84.7171 76.8864 84.4346 77.3148 84.0654 77.6748C83.6963 78.0303 83.2542 78.3037 82.7393 78.4951C82.2243 78.6865 81.6523 78.7822 81.0234 78.7822ZM88.0098 75.0293V73.9355H90.7988C91.5052 73.9355 92.0521 73.7533 92.4395 73.3887C92.8268 73.0195 93.0205 72.5114 93.0205 71.8643V71.8506C93.0205 71.1989 92.8268 70.6908 92.4395 70.3262C92.0521 69.9616 91.5052 69.7793 90.7988 69.7793H88.0098V68.6855H91.1133C91.7331 68.6855 92.2799 68.8177 92.7539 69.082C93.2279 69.3464 93.5993 69.7155 93.8682 70.1895C94.1416 70.6634 94.2783 71.2126 94.2783 71.8369V71.8506C94.2783 72.4749 94.1416 73.0264 93.8682 73.5049C93.5993 73.9834 93.2279 74.3571 92.7539 74.626C92.2799 74.8949 91.7331 75.0293 91.1133 75.0293H88.0098ZM87.3945 78.5498V68.6855H88.625V78.5498H87.3945ZM98.8584 78.5498V69.793H95.6797V68.6855H103.268V69.793H100.089V78.5498H98.8584Z" fill="black" fill-opacity="0.85"/>
<path d="M263.154 73.0091C263.452 73.3078 263.452 73.7918 263.154 74.0905L257.568 79.6769C257.308 79.9366 256.887 79.9366 256.627 79.6769C256.367 79.4172 256.367 78.9961 256.627 78.7364L261.814 73.5498L256.627 68.3632C256.367 68.1035 256.367 67.6824 256.627 67.4227C256.887 67.163 257.308 67.163 257.568 67.4227L263.154 73.0091Z" fill="black"/>
<path d="M8.5 67.5C8.5 60.8726 13.8726 55.5 20.5 55.5H262.5C269.127 55.5 274.5 60.8726 274.5 67.5V78.5C274.5 85.1274 269.127 90.5 262.5 90.5H20.5C13.8726 90.5 8.5 85.1274 8.5 78.5V67.5Z" fill="#D9D9D9" fill-opacity="0.2"/>
</g>
</g>
<rect x="0.25" y="0.25" width="282.5" height="97.5996" rx="16.25" stroke="black" stroke-opacity="0.2" stroke-width="0.5"/>
<g clip-path="url(#clip2_4613_3024)">
<rect x="273.5" y="48.5" width="214" height="121" rx="16" fill="white"/>
<g clip-path="url(#clip3_4613_3024)">
<path d="M286.972 77L290.608 67.1357H291.552V68.7285H291.162L288.264 77H286.972ZM288.619 74.1768L289.002 73.1309H293.459L293.842 74.1768H288.619ZM294.17 77L291.271 68.7285V67.1357H291.825L295.462 77H294.17ZM297.109 77V66.7051H298.299V77H297.109ZM300.65 77V66.7051H301.84V77H300.65ZM307.151 77.1299C306.454 77.1299 305.85 76.9772 305.34 76.6719C304.834 76.362 304.442 75.9222 304.164 75.3525C303.891 74.7829 303.754 74.1061 303.754 73.3223V73.3086C303.754 72.5202 303.891 71.8411 304.164 71.2715C304.442 70.7018 304.834 70.2643 305.34 69.959C305.85 69.6536 306.454 69.501 307.151 69.501C307.853 69.501 308.457 69.6536 308.963 69.959C309.469 70.2643 309.858 70.7018 310.132 71.2715C310.41 71.8411 310.549 72.5202 310.549 73.3086V73.3223C310.549 74.1061 310.41 74.7829 310.132 75.3525C309.858 75.9222 309.469 76.362 308.963 76.6719C308.457 76.9772 307.853 77.1299 307.151 77.1299ZM307.151 76.0771C307.616 76.0771 308.01 75.9678 308.334 75.749C308.658 75.5303 308.904 75.2158 309.072 74.8057C309.245 74.3955 309.332 73.901 309.332 73.3223V73.3086C309.332 72.7253 309.245 72.2285 309.072 71.8184C308.904 71.4082 308.658 71.096 308.334 70.8818C308.01 70.6631 307.616 70.5537 307.151 70.5537C306.687 70.5537 306.292 70.6631 305.969 70.8818C305.645 71.096 305.397 71.4082 305.224 71.8184C305.055 72.2285 304.971 72.7253 304.971 73.3086V73.3223C304.971 73.901 305.055 74.3955 305.224 74.8057C305.397 75.2158 305.645 75.5303 305.969 75.749C306.292 75.9678 306.687 76.0771 307.151 76.0771ZM313.543 77L311.479 69.6309H312.668L314.117 75.5234H314.227L315.874 69.6309H317.002L318.649 75.5234H318.759L320.208 69.6309H321.391L319.326 77H318.13L316.482 71.2988H316.373L314.732 77H313.543ZM325.697 77.1299C324.995 77.1299 324.392 76.9749 323.886 76.665C323.384 76.3551 322.997 75.9176 322.724 75.3525C322.455 74.7829 322.32 74.113 322.32 73.3428V73.3359C322.32 72.5749 322.455 71.9072 322.724 71.333C322.997 70.7588 323.382 70.3099 323.879 69.9863C324.376 69.6628 324.957 69.501 325.622 69.501C326.292 69.501 326.866 69.6559 327.345 69.9658C327.828 70.2757 328.197 70.7087 328.452 71.2646C328.712 71.8161 328.842 72.4587 328.842 73.1924V73.6572H322.936V72.707H328.233L327.646 73.5752V73.1035C327.646 72.5247 327.559 72.0485 327.386 71.6748C327.213 71.3011 326.973 71.0231 326.668 70.8408C326.363 70.654 326.012 70.5605 325.615 70.5605C325.219 70.5605 324.863 70.6585 324.549 70.8545C324.239 71.0459 323.993 71.3307 323.811 71.709C323.628 72.0872 323.537 72.5521 323.537 73.1035V73.5752C323.537 74.0993 323.626 74.5482 323.804 74.9219C323.981 75.291 324.234 75.5758 324.562 75.7764C324.891 75.9723 325.278 76.0703 325.725 76.0703C326.057 76.0703 326.347 76.0247 326.593 75.9336C326.839 75.8424 327.042 75.7262 327.201 75.585C327.361 75.4437 327.472 75.3001 327.536 75.1543L327.563 75.0928H328.753L328.739 75.1475C328.675 75.3981 328.562 75.6419 328.397 75.8789C328.238 76.1113 328.031 76.3232 327.775 76.5146C327.52 76.7015 327.217 76.8519 326.866 76.9658C326.52 77.0752 326.13 77.1299 325.697 77.1299ZM333.408 77.1299C332.788 77.1299 332.246 76.9727 331.781 76.6582C331.316 76.3438 330.956 75.9017 330.701 75.332C330.446 74.7578 330.318 74.0879 330.318 73.3223V73.3086C330.318 72.5384 330.446 71.8685 330.701 71.2988C330.956 70.7292 331.314 70.2871 331.774 69.9727C332.239 69.6582 332.784 69.501 333.408 69.501C333.745 69.501 334.062 69.5557 334.358 69.665C334.659 69.7699 334.926 69.918 335.158 70.1094C335.391 70.3008 335.573 70.5286 335.705 70.793H335.814V66.7051H337.004V77H335.814V75.8242H335.705C335.555 76.0977 335.366 76.3324 335.138 76.5283C334.91 76.7197 334.65 76.8678 334.358 76.9727C334.067 77.0775 333.75 77.1299 333.408 77.1299ZM333.682 76.0771C334.128 76.0771 334.513 75.9655 334.837 75.7422C335.16 75.5189 335.409 75.2021 335.582 74.792C335.755 74.3773 335.842 73.8874 335.842 73.3223V73.3086C335.842 72.7389 335.755 72.249 335.582 71.8389C335.409 71.4287 335.16 71.112 334.837 70.8887C334.513 70.6654 334.128 70.5537 333.682 70.5537C333.235 70.5537 332.85 70.6654 332.526 70.8887C332.207 71.1074 331.961 71.4219 331.788 71.832C331.619 72.2422 331.535 72.7344 331.535 73.3086V73.3223C331.535 73.8919 331.619 74.3841 331.788 74.7988C331.961 75.209 332.207 75.5257 332.526 75.749C332.85 75.9678 333.235 76.0771 333.682 76.0771Z" fill="black" fill-opacity="0.85"/>
<path d="M278.5 101.5C278.5 94.8726 283.873 89.5 290.5 89.5H470.5C477.127 89.5 482.5 94.8726 482.5 101.5V112.5C482.5 119.127 477.127 124.5 470.5 124.5H290.5C283.873 124.5 278.5 119.127 278.5 112.5V101.5Z" fill="#D9D9D9" fill-opacity="0.2"/>
<path d="M287.758 112V102.136H288.954L294.607 110.243L293.787 109.812H294.416V102.136H295.633V112H294.437L288.783 103.92L289.604 104.351H288.975V112H287.758ZM301.026 112.13C300.329 112.13 299.725 111.977 299.215 111.672C298.709 111.362 298.317 110.922 298.039 110.353C297.766 109.783 297.629 109.106 297.629 108.322V108.309C297.629 107.52 297.766 106.841 298.039 106.271C298.317 105.702 298.709 105.264 299.215 104.959C299.725 104.654 300.329 104.501 301.026 104.501C301.728 104.501 302.332 104.654 302.838 104.959C303.344 105.264 303.733 105.702 304.007 106.271C304.285 106.841 304.424 107.52 304.424 108.309V108.322C304.424 109.106 304.285 109.783 304.007 110.353C303.733 110.922 303.344 111.362 302.838 111.672C302.332 111.977 301.728 112.13 301.026 112.13ZM301.026 111.077C301.491 111.077 301.885 110.968 302.209 110.749C302.533 110.53 302.779 110.216 302.947 109.806C303.12 109.396 303.207 108.901 303.207 108.322V108.309C303.207 107.725 303.12 107.229 302.947 106.818C302.779 106.408 302.533 106.096 302.209 105.882C301.885 105.663 301.491 105.554 301.026 105.554C300.562 105.554 300.167 105.663 299.844 105.882C299.52 106.096 299.272 106.408 299.099 106.818C298.93 107.229 298.846 107.725 298.846 108.309V108.322C298.846 108.901 298.93 109.396 299.099 109.806C299.272 110.216 299.52 110.53 299.844 110.749C300.167 110.968 300.562 111.077 301.026 111.077ZM308.888 112.055C308.131 112.055 307.582 111.902 307.24 111.597C306.903 111.291 306.734 110.788 306.734 110.086V105.615H305.572V104.631H306.734V102.724H307.965V104.631H309.578V105.615H307.965V109.785C307.965 110.218 308.047 110.53 308.211 110.722C308.375 110.909 308.648 111.002 309.031 111.002C309.136 111.002 309.225 111 309.298 110.995C309.375 110.991 309.469 110.984 309.578 110.975V111.986C309.464 112.005 309.35 112.021 309.236 112.034C309.122 112.048 309.006 112.055 308.888 112.055ZM317.316 112.13C316.852 112.13 316.432 112.041 316.059 111.863C315.689 111.686 315.396 111.433 315.177 111.104C314.963 110.776 314.855 110.389 314.855 109.942V109.929C314.855 109.491 314.96 109.118 315.17 108.808C315.38 108.493 315.685 108.247 316.086 108.069C316.487 107.892 316.972 107.787 317.542 107.755L320.249 107.591V108.541L317.686 108.705C317.125 108.737 316.715 108.853 316.455 109.054C316.2 109.254 316.072 109.537 316.072 109.901V109.915C316.072 110.289 316.214 110.58 316.496 110.79C316.779 110.995 317.134 111.098 317.562 111.098C317.968 111.098 318.328 111.018 318.643 110.858C318.957 110.694 319.203 110.473 319.381 110.195C319.563 109.917 319.654 109.603 319.654 109.252V106.955C319.654 106.499 319.515 106.153 319.237 105.916C318.964 105.674 318.551 105.554 318 105.554C317.558 105.554 317.196 105.633 316.913 105.793C316.631 105.948 316.441 106.169 316.346 106.456L316.339 106.477H315.149L315.156 106.436C315.22 106.048 315.38 105.711 315.635 105.424C315.895 105.132 316.229 104.907 316.64 104.747C317.05 104.583 317.517 104.501 318.041 104.501C318.643 104.501 319.151 104.599 319.565 104.795C319.985 104.991 320.301 105.273 320.516 105.643C320.734 106.007 320.844 106.445 320.844 106.955V112H319.654V110.913H319.545C319.39 111.173 319.201 111.394 318.978 111.576C318.759 111.758 318.51 111.897 318.232 111.993C317.954 112.084 317.649 112.13 317.316 112.13ZM323.086 112V101.705H324.275V112H323.086ZM326.627 112V101.705H327.816V112H326.627ZM333.128 112.13C332.431 112.13 331.827 111.977 331.316 111.672C330.811 111.362 330.419 110.922 330.141 110.353C329.867 109.783 329.73 109.106 329.73 108.322V108.309C329.73 107.52 329.867 106.841 330.141 106.271C330.419 105.702 330.811 105.264 331.316 104.959C331.827 104.654 332.431 104.501 333.128 104.501C333.83 104.501 334.434 104.654 334.939 104.959C335.445 105.264 335.835 105.702 336.108 106.271C336.386 106.841 336.525 107.52 336.525 108.309V108.322C336.525 109.106 336.386 109.783 336.108 110.353C335.835 110.922 335.445 111.362 334.939 111.672C334.434 111.977 333.83 112.13 333.128 112.13ZM333.128 111.077C333.593 111.077 333.987 110.968 334.311 110.749C334.634 110.53 334.88 110.216 335.049 109.806C335.222 109.396 335.309 108.901 335.309 108.322V108.309C335.309 107.725 335.222 107.229 335.049 106.818C334.88 106.408 334.634 106.096 334.311 105.882C333.987 105.663 333.593 105.554 333.128 105.554C332.663 105.554 332.269 105.663 331.945 105.882C331.622 106.096 331.373 106.408 331.2 106.818C331.032 107.229 330.947 107.725 330.947 108.309V108.322C330.947 108.901 331.032 109.396 331.2 109.806C331.373 110.216 331.622 110.53 331.945 110.749C332.269 110.968 332.663 111.077 333.128 111.077ZM339.52 112L337.455 104.631H338.645L340.094 110.523H340.203L341.851 104.631H342.979L344.626 110.523H344.735L346.185 104.631H347.367L345.303 112H344.106L342.459 106.299H342.35L340.709 112H339.52ZM351.674 112.13C350.972 112.13 350.368 111.975 349.862 111.665C349.361 111.355 348.974 110.918 348.7 110.353C348.431 109.783 348.297 109.113 348.297 108.343V108.336C348.297 107.575 348.431 106.907 348.7 106.333C348.974 105.759 349.359 105.31 349.855 104.986C350.352 104.663 350.933 104.501 351.599 104.501C352.269 104.501 352.843 104.656 353.321 104.966C353.804 105.276 354.174 105.709 354.429 106.265C354.688 106.816 354.818 107.459 354.818 108.192V108.657H348.912V107.707H354.21L353.622 108.575V108.104C353.622 107.525 353.535 107.049 353.362 106.675C353.189 106.301 352.95 106.023 352.645 105.841C352.339 105.654 351.988 105.561 351.592 105.561C351.195 105.561 350.84 105.659 350.525 105.854C350.215 106.046 349.969 106.331 349.787 106.709C349.605 107.087 349.514 107.552 349.514 108.104V108.575C349.514 109.099 349.603 109.548 349.78 109.922C349.958 110.291 350.211 110.576 350.539 110.776C350.867 110.972 351.255 111.07 351.701 111.07C352.034 111.07 352.323 111.025 352.569 110.934C352.815 110.842 353.018 110.726 353.178 110.585C353.337 110.444 353.449 110.3 353.513 110.154L353.54 110.093H354.729L354.716 110.147C354.652 110.398 354.538 110.642 354.374 110.879C354.215 111.111 354.007 111.323 353.752 111.515C353.497 111.701 353.194 111.852 352.843 111.966C352.496 112.075 352.107 112.13 351.674 112.13ZM359.385 112.13C358.765 112.13 358.223 111.973 357.758 111.658C357.293 111.344 356.933 110.902 356.678 110.332C356.423 109.758 356.295 109.088 356.295 108.322V108.309C356.295 107.538 356.423 106.868 356.678 106.299C356.933 105.729 357.291 105.287 357.751 104.973C358.216 104.658 358.76 104.501 359.385 104.501C359.722 104.501 360.039 104.556 360.335 104.665C360.636 104.77 360.902 104.918 361.135 105.109C361.367 105.301 361.549 105.529 361.682 105.793H361.791V101.705H362.98V112H361.791V110.824H361.682C361.531 111.098 361.342 111.332 361.114 111.528C360.886 111.72 360.627 111.868 360.335 111.973C360.043 112.077 359.727 112.13 359.385 112.13ZM359.658 111.077C360.105 111.077 360.49 110.965 360.813 110.742C361.137 110.519 361.385 110.202 361.559 109.792C361.732 109.377 361.818 108.887 361.818 108.322V108.309C361.818 107.739 361.732 107.249 361.559 106.839C361.385 106.429 361.137 106.112 360.813 105.889C360.49 105.665 360.105 105.554 359.658 105.554C359.212 105.554 358.826 105.665 358.503 105.889C358.184 106.107 357.938 106.422 357.765 106.832C357.596 107.242 357.512 107.734 357.512 108.309V108.322C357.512 108.892 357.596 109.384 357.765 109.799C357.938 110.209 358.184 110.526 358.503 110.749C358.826 110.968 359.212 111.077 359.658 111.077Z" fill="black" fill-opacity="0.85"/>
<path fill-rule="evenodd" clip-rule="evenodd" d="M464.493 99.085C468.864 99.0851 472.408 102.629 472.408 107C472.408 111.371 468.864 114.915 464.493 114.915C460.122 114.915 456.578 111.371 456.578 107C456.578 102.629 460.122 99.085 464.493 99.085ZM467.585 103.748C467.285 103.537 466.87 103.609 466.658 103.909L463.177 108.854L461.652 107.178L461.552 107.088C461.302 106.906 460.951 106.917 460.713 107.133C460.475 107.349 460.43 107.699 460.588 107.965L460.668 108.072L462.751 110.364L462.805 110.417C462.936 110.532 463.109 110.592 463.285 110.581C463.486 110.568 463.671 110.465 463.787 110.3L467.746 104.675C467.957 104.375 467.885 103.96 467.585 103.748Z" fill="black"/>
</g>
<mask id="path-20-inside-2_4613_3024" fill="white">
<path d="M273.5 130.5H487.5V169.5H273.5V130.5Z"/>
</mask>
<path d="M273.5 130.5V131.5H487.5V130.5V129.5H273.5V130.5Z" fill="black" fill-opacity="0.06" mask="url(#path-20-inside-2_4613_3024)"/>
<path d="M283.834 147.5L281.935 140.454H283.077L284.371 145.928H284.435L285.904 140.454H286.925L288.404 145.928H288.468L289.757 140.454H290.895L288.995 147.5H287.96L286.446 142.236H286.383L284.869 147.5H283.834ZM292.145 147.5V140.117H293.204V142.998H293.287C293.417 142.715 293.609 142.493 293.863 142.334C294.117 142.174 294.438 142.095 294.825 142.095C295.219 142.095 295.553 142.171 295.826 142.324C296.1 142.477 296.308 142.702 296.451 142.998C296.594 143.291 296.666 143.647 296.666 144.067V147.5H295.602V144.316C295.602 143.874 295.509 143.545 295.323 143.33C295.141 143.112 294.854 143.003 294.464 143.003C294.207 143.003 293.984 143.06 293.795 143.174C293.606 143.285 293.46 143.444 293.355 143.652C293.255 143.857 293.204 144.103 293.204 144.39V147.5H292.145ZM300.367 147.603C299.85 147.603 299.405 147.492 299.034 147.271C298.663 147.046 298.377 146.729 298.175 146.318C297.976 145.908 297.877 145.423 297.877 144.863V144.858C297.877 144.305 297.976 143.822 298.175 143.408C298.377 142.995 298.66 142.673 299.024 142.441C299.392 142.21 299.822 142.095 300.313 142.095C300.808 142.095 301.233 142.205 301.588 142.427C301.946 142.648 302.221 142.959 302.413 143.359C302.605 143.757 302.701 144.222 302.701 144.756V145.127H298.414V144.37H302.174L301.666 145.073V144.648C301.666 144.271 301.607 143.958 301.49 143.711C301.376 143.46 301.218 143.273 301.017 143.149C300.815 143.026 300.582 142.964 300.318 142.964C300.055 142.964 299.819 143.029 299.61 143.159C299.405 143.286 299.243 143.475 299.122 143.726C299.005 143.976 298.946 144.284 298.946 144.648V145.073C298.946 145.422 299.005 145.719 299.122 145.967C299.239 146.214 299.405 146.403 299.62 146.533C299.838 146.663 300.095 146.729 300.392 146.729C300.619 146.729 300.815 146.698 300.978 146.636C301.144 146.571 301.279 146.491 301.383 146.396C301.49 146.302 301.563 146.209 301.603 146.118L301.622 146.079H302.647L302.638 146.123C302.592 146.299 302.512 146.475 302.398 146.65C302.285 146.823 302.133 146.981 301.944 147.124C301.759 147.267 301.534 147.383 301.271 147.471C301.01 147.559 300.709 147.603 300.367 147.603ZM303.961 147.5V142.197H305.021V142.998H305.104C305.234 142.715 305.426 142.493 305.68 142.334C305.934 142.174 306.254 142.095 306.642 142.095C307.237 142.095 307.693 142.266 308.009 142.607C308.325 142.949 308.482 143.436 308.482 144.067V147.5H307.418V144.316C307.418 143.874 307.325 143.545 307.14 143.33C306.957 143.112 306.671 143.003 306.28 143.003C306.023 143.003 305.8 143.06 305.611 143.174C305.423 143.285 305.276 143.444 305.172 143.652C305.071 143.857 305.021 144.103 305.021 144.39V147.5H303.961ZM314.615 147.588C314.173 147.588 313.785 147.477 313.453 147.256C313.124 147.031 312.869 146.714 312.687 146.304C312.507 145.894 312.418 145.41 312.418 144.854V144.844C312.418 144.284 312.507 143.799 312.687 143.389C312.866 142.979 313.119 142.663 313.448 142.441C313.777 142.217 314.166 142.104 314.615 142.104C314.859 142.104 315.087 142.144 315.299 142.222C315.51 142.297 315.698 142.404 315.86 142.544C316.023 142.681 316.152 142.845 316.246 143.037H316.324V140.117H317.389V147.5H316.324V146.665H316.246C316.142 146.857 316.01 147.023 315.851 147.163C315.691 147.3 315.507 147.406 315.299 147.48C315.09 147.552 314.863 147.588 314.615 147.588ZM314.918 146.68C315.211 146.68 315.465 146.606 315.68 146.46C315.895 146.313 316.059 146.104 316.173 145.83C316.287 145.553 316.344 145.228 316.344 144.854V144.844C316.344 144.466 316.285 144.141 316.168 143.867C316.054 143.594 315.89 143.384 315.675 143.237C315.463 143.088 315.211 143.013 314.918 143.013C314.625 143.013 314.371 143.088 314.156 143.237C313.945 143.384 313.782 143.594 313.668 143.867C313.557 144.137 313.502 144.463 313.502 144.844V144.854C313.502 145.231 313.557 145.557 313.668 145.83C313.782 146.104 313.945 146.313 314.156 146.46C314.371 146.606 314.625 146.68 314.918 146.68ZM318.976 147.5V142.197H320.04V147.5H318.976ZM319.513 141.25C319.33 141.25 319.174 141.185 319.044 141.055C318.914 140.924 318.849 140.768 318.849 140.586C318.849 140.404 318.914 140.249 319.044 140.122C319.174 139.992 319.33 139.927 319.513 139.927C319.695 139.927 319.851 139.992 319.981 140.122C320.112 140.249 320.177 140.404 320.177 140.586C320.177 140.768 320.112 140.924 319.981 141.055C319.851 141.185 319.695 141.25 319.513 141.25ZM323.507 147.603C323.08 147.603 322.709 147.541 322.394 147.417C322.078 147.29 321.827 147.116 321.642 146.895C321.456 146.67 321.347 146.41 321.314 146.113V146.104H322.379V146.113C322.447 146.312 322.577 146.473 322.77 146.597C322.962 146.72 323.215 146.782 323.531 146.782C323.749 146.782 323.94 146.751 324.103 146.689C324.269 146.628 324.399 146.541 324.493 146.431C324.588 146.32 324.635 146.193 324.635 146.05V146.04C324.635 145.874 324.568 145.734 324.435 145.62C324.301 145.506 324.081 145.413 323.775 145.342L322.926 145.146C322.594 145.072 322.319 144.969 322.101 144.839C321.882 144.709 321.721 144.549 321.617 144.36C321.513 144.168 321.461 143.944 321.461 143.687V143.682C321.461 143.372 321.549 143.099 321.725 142.861C321.9 142.62 322.143 142.433 322.452 142.3C322.765 142.163 323.121 142.095 323.521 142.095C323.925 142.095 324.277 142.158 324.576 142.285C324.879 142.409 325.118 142.581 325.294 142.803C325.47 143.021 325.574 143.275 325.606 143.564V143.569H324.591V143.56C324.542 143.374 324.425 143.219 324.239 143.096C324.057 142.972 323.816 142.91 323.517 142.91C323.325 142.91 323.154 142.941 323.004 143.003C322.854 143.062 322.735 143.145 322.647 143.252C322.563 143.356 322.521 143.48 322.521 143.623V143.633C322.521 143.743 322.548 143.841 322.604 143.926C322.662 144.007 322.753 144.08 322.877 144.146C323.001 144.207 323.16 144.263 323.355 144.312L324.2 144.502C324.708 144.622 325.086 144.797 325.333 145.024C325.584 145.252 325.709 145.558 325.709 145.942V145.952C325.709 146.278 325.613 146.566 325.421 146.816C325.229 147.064 324.967 147.257 324.635 147.397C324.306 147.534 323.93 147.603 323.507 147.603ZM328.424 147.588C328.089 147.588 327.787 147.524 327.521 147.397C327.257 147.267 327.049 147.083 326.896 146.846C326.743 146.608 326.666 146.33 326.666 146.011V146.001C326.666 145.682 326.743 145.41 326.896 145.186C327.052 144.961 327.276 144.785 327.569 144.658C327.866 144.528 328.224 144.45 328.644 144.424L330.602 144.307V145.054L328.79 145.171C328.425 145.194 328.157 145.272 327.984 145.405C327.812 145.535 327.726 145.719 327.726 145.957V145.967C327.726 146.208 327.818 146.398 328.004 146.538C328.189 146.675 328.424 146.743 328.707 146.743C328.971 146.743 329.205 146.691 329.41 146.587C329.618 146.479 329.781 146.336 329.898 146.157C330.016 145.975 330.074 145.77 330.074 145.542V143.872C330.074 143.579 329.983 143.356 329.801 143.203C329.622 143.047 329.355 142.969 329 142.969C328.704 142.969 328.461 143.021 328.272 143.125C328.087 143.229 327.963 143.376 327.901 143.564L327.892 143.579H326.871L326.876 143.545C326.918 143.252 327.034 142.998 327.223 142.783C327.415 142.565 327.665 142.396 327.975 142.275C328.287 142.155 328.644 142.095 329.044 142.095C329.49 142.095 329.868 142.166 330.177 142.31C330.489 142.45 330.725 142.653 330.885 142.92C331.048 143.184 331.129 143.501 331.129 143.872V147.5H330.074V146.748H329.996C329.892 146.927 329.762 147.08 329.605 147.207C329.449 147.331 329.272 147.425 329.073 147.49C328.875 147.555 328.658 147.588 328.424 147.588ZM335.445 147.588C335.198 147.588 334.97 147.552 334.762 147.48C334.553 147.406 334.368 147.3 334.205 147.163C334.046 147.023 333.915 146.857 333.814 146.665H333.731V147.5H332.672V140.117H333.731V143.037H333.814C333.909 142.845 334.037 142.681 334.2 142.544C334.363 142.404 334.55 142.297 334.762 142.222C334.973 142.144 335.201 142.104 335.445 142.104C335.895 142.104 336.284 142.217 336.612 142.441C336.941 142.663 337.195 142.979 337.374 143.389C337.553 143.799 337.643 144.284 337.643 144.844V144.854C337.643 145.41 337.551 145.894 337.369 146.304C337.19 146.714 336.936 147.031 336.607 147.256C336.279 147.477 335.891 147.588 335.445 147.588ZM335.143 146.68C335.439 146.68 335.693 146.606 335.904 146.46C336.116 146.313 336.277 146.104 336.388 145.83C336.502 145.557 336.559 145.231 336.559 144.854V144.844C336.559 144.463 336.502 144.137 336.388 143.867C336.277 143.594 336.116 143.384 335.904 143.237C335.693 143.088 335.439 143.013 335.143 143.013C334.85 143.013 334.596 143.088 334.381 143.237C334.166 143.384 334.002 143.594 333.888 143.867C333.774 144.141 333.717 144.466 333.717 144.844V144.854C333.717 145.228 333.774 145.553 333.888 145.83C334.002 146.104 334.166 146.313 334.381 146.46C334.596 146.606 334.85 146.68 335.143 146.68ZM338.951 147.5V140.117H340.011V147.5H338.951ZM343.814 147.603C343.297 147.603 342.853 147.492 342.481 147.271C342.11 147.046 341.824 146.729 341.622 146.318C341.424 145.908 341.324 145.423 341.324 144.863V144.858C341.324 144.305 341.424 143.822 341.622 143.408C341.824 142.995 342.107 142.673 342.472 142.441C342.84 142.21 343.269 142.095 343.761 142.095C344.256 142.095 344.68 142.205 345.035 142.427C345.393 142.648 345.668 142.959 345.86 143.359C346.052 143.757 346.148 144.222 346.148 144.756V145.127H341.861V144.37H345.621L345.113 145.073V144.648C345.113 144.271 345.055 143.958 344.938 143.711C344.824 143.46 344.666 143.273 344.464 143.149C344.262 143.026 344.029 142.964 343.766 142.964C343.502 142.964 343.266 143.029 343.058 143.159C342.853 143.286 342.69 143.475 342.569 143.726C342.452 143.976 342.394 144.284 342.394 144.648V145.073C342.394 145.422 342.452 145.719 342.569 145.967C342.687 146.214 342.853 146.403 343.067 146.533C343.285 146.663 343.543 146.729 343.839 146.729C344.067 146.729 344.262 146.698 344.425 146.636C344.591 146.571 344.726 146.491 344.83 146.396C344.938 146.302 345.011 146.209 345.05 146.118L345.069 146.079H346.095L346.085 146.123C346.039 146.299 345.96 146.475 345.846 146.65C345.732 146.823 345.58 146.981 345.392 147.124C345.206 147.267 344.981 147.383 344.718 147.471C344.457 147.559 344.156 147.603 343.814 147.603ZM349.342 147.588C348.899 147.588 348.512 147.477 348.18 147.256C347.851 147.031 347.595 146.714 347.413 146.304C347.234 145.894 347.145 145.41 347.145 144.854V144.844C347.145 144.284 347.234 143.799 347.413 143.389C347.592 142.979 347.846 142.663 348.175 142.441C348.504 142.217 348.893 142.104 349.342 142.104C349.586 142.104 349.814 142.144 350.025 142.222C350.237 142.297 350.424 142.404 350.587 142.544C350.75 142.681 350.878 142.845 350.973 143.037H351.051V140.117H352.115V147.5H351.051V146.665H350.973C350.868 146.857 350.737 147.023 350.577 147.163C350.418 147.3 350.234 147.406 350.025 147.48C349.817 147.552 349.589 147.588 349.342 147.588ZM349.645 146.68C349.938 146.68 350.191 146.606 350.406 146.46C350.621 146.313 350.785 146.104 350.899 145.83C351.013 145.553 351.07 145.228 351.07 144.854V144.844C351.07 144.466 351.012 144.141 350.895 143.867C350.781 143.594 350.616 143.384 350.401 143.237C350.19 143.088 349.938 143.013 349.645 143.013C349.352 143.013 349.098 143.088 348.883 143.237C348.671 143.384 348.508 143.594 348.395 143.867C348.284 144.137 348.229 144.463 348.229 144.844V144.854C348.229 145.231 348.284 145.557 348.395 145.83C348.508 146.104 348.671 146.313 348.883 146.46C349.098 146.606 349.352 146.68 349.645 146.68ZM353.502 149.331L353.932 146.46H355.064L354.249 149.331H353.502ZM362.579 147.671C361.928 147.671 361.363 147.521 360.885 147.222C360.41 146.922 360.043 146.497 359.786 145.947C359.529 145.397 359.4 144.743 359.4 143.984V143.975C359.4 143.213 359.529 142.557 359.786 142.007C360.043 141.457 360.41 141.032 360.885 140.732C361.36 140.433 361.925 140.283 362.579 140.283C363.097 140.283 363.564 140.386 363.98 140.591C364.4 140.793 364.744 141.073 365.011 141.431C365.281 141.789 365.445 142.201 365.504 142.666V142.695H364.415L364.41 142.676C364.345 142.386 364.226 142.135 364.054 141.924C363.881 141.712 363.67 141.548 363.419 141.431C363.168 141.313 362.888 141.255 362.579 141.255C362.159 141.255 361.795 141.366 361.485 141.587C361.179 141.808 360.942 142.122 360.772 142.529C360.606 142.933 360.523 143.415 360.523 143.975V143.984C360.523 144.538 360.606 145.018 360.772 145.425C360.942 145.832 361.179 146.146 361.485 146.367C361.795 146.589 362.161 146.699 362.584 146.699C362.893 146.699 363.173 146.647 363.424 146.543C363.678 146.439 363.889 146.291 364.059 146.099C364.228 145.903 364.343 145.674 364.405 145.41L364.415 145.391H365.509L365.504 145.415C365.436 145.868 365.27 146.263 365.006 146.602C364.742 146.94 364.404 147.204 363.99 147.393C363.577 147.578 363.106 147.671 362.579 147.671ZM366.871 147.5V140.117H367.931V142.998H368.014C368.144 142.715 368.336 142.493 368.59 142.334C368.844 142.174 369.164 142.095 369.552 142.095C369.946 142.095 370.279 142.171 370.553 142.324C370.826 142.477 371.035 142.702 371.178 142.998C371.321 143.291 371.393 143.647 371.393 144.067V147.5H370.328V144.316C370.328 143.874 370.235 143.545 370.05 143.33C369.868 143.112 369.581 143.003 369.19 143.003C368.933 143.003 368.71 143.06 368.521 143.174C368.333 143.285 368.186 143.444 368.082 143.652C367.981 143.857 367.931 144.103 367.931 144.39V147.5H366.871ZM374.322 147.588C373.987 147.588 373.686 147.524 373.419 147.397C373.155 147.267 372.947 147.083 372.794 146.846C372.641 146.608 372.564 146.33 372.564 146.011V146.001C372.564 145.682 372.641 145.41 372.794 145.186C372.95 144.961 373.175 144.785 373.468 144.658C373.764 144.528 374.122 144.45 374.542 144.424L376.5 144.307V145.054L374.688 145.171C374.324 145.194 374.055 145.272 373.883 145.405C373.71 145.535 373.624 145.719 373.624 145.957V145.967C373.624 146.208 373.717 146.398 373.902 146.538C374.088 146.675 374.322 146.743 374.605 146.743C374.869 146.743 375.104 146.691 375.309 146.587C375.517 146.479 375.68 146.336 375.797 146.157C375.914 145.975 375.973 145.77 375.973 145.542V143.872C375.973 143.579 375.882 143.356 375.699 143.203C375.52 143.047 375.253 142.969 374.898 142.969C374.602 142.969 374.36 143.021 374.171 143.125C373.985 143.229 373.862 143.376 373.8 143.564L373.79 143.579H372.77L372.774 143.545C372.817 143.252 372.932 142.998 373.121 142.783C373.313 142.565 373.564 142.396 373.873 142.275C374.186 142.155 374.542 142.095 374.942 142.095C375.388 142.095 375.766 142.166 376.075 142.31C376.388 142.45 376.624 142.653 376.783 142.92C376.946 143.184 377.027 143.501 377.027 143.872V147.5H375.973V146.748H375.895C375.79 146.927 375.66 147.08 375.504 147.207C375.348 147.331 375.17 147.425 374.972 147.49C374.773 147.555 374.557 147.588 374.322 147.588ZM380.523 147.534C379.944 147.534 379.524 147.424 379.264 147.202C379.007 146.978 378.878 146.611 378.878 146.104V143.032H378.048V142.197H378.878V140.859H379.962V142.197H381.1V143.032H379.962V145.845C379.962 146.131 380.019 146.338 380.133 146.465C380.247 146.589 380.436 146.65 380.699 146.65C380.777 146.65 380.844 146.649 380.899 146.646C380.958 146.642 381.025 146.637 381.1 146.631V147.48C381.015 147.493 380.924 147.505 380.826 147.515C380.729 147.528 380.628 147.534 380.523 147.534ZM385.436 147.671C384.931 147.671 384.479 147.586 384.078 147.417C383.678 147.244 383.336 146.997 383.053 146.675C382.77 146.353 382.551 145.965 382.398 145.513C382.249 145.057 382.174 144.546 382.174 143.979V143.97C382.174 143.221 382.307 142.572 382.574 142.021C382.841 141.468 383.219 141.04 383.707 140.737C384.195 140.435 384.767 140.283 385.421 140.283C385.955 140.283 386.432 140.378 386.852 140.566C387.271 140.755 387.617 141.021 387.887 141.362C388.157 141.701 388.334 142.098 388.419 142.554L388.424 142.603H387.325L387.311 142.554C387.187 142.137 386.961 141.816 386.632 141.592C386.306 141.367 385.903 141.255 385.421 141.255C384.988 141.255 384.612 141.366 384.293 141.587C383.974 141.808 383.727 142.122 383.551 142.529C383.378 142.933 383.292 143.411 383.292 143.965V143.975C383.292 144.395 383.341 144.772 383.438 145.107C383.539 145.443 383.684 145.729 383.873 145.967C384.062 146.201 384.288 146.382 384.552 146.509C384.815 146.636 385.113 146.699 385.445 146.699C385.829 146.699 386.166 146.624 386.456 146.475C386.749 146.322 386.977 146.11 387.14 145.84C387.302 145.57 387.385 145.254 387.389 144.893L387.394 144.736H385.582V143.853H388.478V144.727C388.478 145.173 388.406 145.576 388.263 145.938C388.119 146.299 387.914 146.61 387.647 146.87C387.381 147.127 387.06 147.326 386.686 147.466C386.311 147.603 385.895 147.671 385.436 147.671ZM390.528 145.093V144.175H392.452C392.927 144.175 393.295 144.053 393.556 143.809C393.819 143.561 393.951 143.219 393.951 142.783V142.773C393.951 142.331 393.819 141.987 393.556 141.743C393.295 141.499 392.927 141.377 392.452 141.377H390.528V140.454H392.726C393.188 140.454 393.593 140.552 393.941 140.747C394.293 140.939 394.568 141.209 394.767 141.558C394.965 141.903 395.064 142.305 395.064 142.764V142.773C395.064 143.232 394.965 143.638 394.767 143.989C394.568 144.338 394.293 144.609 393.941 144.805C393.593 144.997 393.188 145.093 392.726 145.093H390.528ZM389.981 147.5V140.454H391.075V147.5H389.981ZM398.263 147.5V141.401H396.046V140.454H401.573V141.401H399.356V147.5H398.263ZM407.745 147.603C407.231 147.603 406.786 147.492 406.412 147.271C406.041 147.046 405.755 146.727 405.553 146.313C405.351 145.9 405.25 145.407 405.25 144.834V144.824C405.25 144.261 405.349 143.776 405.548 143.369C405.75 142.962 406.036 142.648 406.407 142.427C406.782 142.205 407.226 142.095 407.74 142.095C408.186 142.095 408.569 142.173 408.888 142.329C409.21 142.482 409.465 142.694 409.654 142.964C409.846 143.231 409.967 143.535 410.016 143.877L410.021 143.901H409L408.995 143.892C408.937 143.631 408.801 143.415 408.59 143.242C408.378 143.066 408.097 142.979 407.745 142.979C407.452 142.979 407.2 143.053 406.988 143.203C406.777 143.35 406.614 143.561 406.5 143.838C406.389 144.115 406.334 144.443 406.334 144.824V144.834C406.334 145.225 406.391 145.56 406.505 145.84C406.619 146.12 406.782 146.336 406.993 146.489C407.205 146.639 407.455 146.714 407.745 146.714C408.077 146.714 408.346 146.641 408.551 146.494C408.759 146.348 408.906 146.131 408.99 145.845L409 145.82L410.016 145.815L410.006 145.859C409.944 146.204 409.819 146.507 409.63 146.768C409.441 147.028 409.189 147.233 408.873 147.383C408.561 147.529 408.185 147.603 407.745 147.603ZM412.672 147.588C412.337 147.588 412.035 147.524 411.769 147.397C411.505 147.267 411.297 147.083 411.144 146.846C410.991 146.608 410.914 146.33 410.914 146.011V146.001C410.914 145.682 410.991 145.41 411.144 145.186C411.3 144.961 411.524 144.785 411.817 144.658C412.114 144.528 412.472 144.45 412.892 144.424L414.85 144.307V145.054L413.038 145.171C412.674 145.194 412.405 145.272 412.232 145.405C412.06 145.535 411.974 145.719 411.974 145.957V145.967C411.974 146.208 412.066 146.398 412.252 146.538C412.438 146.675 412.672 146.743 412.955 146.743C413.219 146.743 413.453 146.691 413.658 146.587C413.867 146.479 414.029 146.336 414.146 146.157C414.264 145.975 414.322 145.77 414.322 145.542V143.872C414.322 143.579 414.231 143.356 414.049 143.203C413.87 143.047 413.603 142.969 413.248 142.969C412.952 142.969 412.709 143.021 412.521 143.125C412.335 143.229 412.211 143.376 412.149 143.564L412.14 143.579H411.119L411.124 143.545C411.166 143.252 411.282 142.998 411.471 142.783C411.663 142.565 411.913 142.396 412.223 142.275C412.535 142.155 412.892 142.095 413.292 142.095C413.738 142.095 414.116 142.166 414.425 142.31C414.737 142.45 414.973 142.653 415.133 142.92C415.296 143.184 415.377 143.501 415.377 143.872V147.5H414.322V146.748H414.244C414.14 146.927 414.01 147.08 413.854 147.207C413.697 147.331 413.52 147.425 413.321 147.49C413.123 147.555 412.906 147.588 412.672 147.588ZM416.871 147.5V142.197H417.931V142.998H418.014C418.144 142.715 418.336 142.493 418.59 142.334C418.844 142.174 419.164 142.095 419.552 142.095C420.147 142.095 420.603 142.266 420.919 142.607C421.235 142.949 421.393 143.436 421.393 144.067V147.5H420.328V144.316C420.328 143.874 420.235 143.545 420.05 143.33C419.868 143.112 419.581 143.003 419.19 143.003C418.933 143.003 418.71 143.06 418.521 143.174C418.333 143.285 418.186 143.444 418.082 143.652C417.981 143.857 417.931 144.103 417.931 144.39V147.5H416.871ZM422.901 143.325L423.331 140.454H424.464L423.648 143.325H422.901ZM428.023 147.534C427.444 147.534 427.024 147.424 426.764 147.202C426.507 146.978 426.378 146.611 426.378 146.104V143.032H425.548V142.197H426.378V140.859H427.462V142.197H428.6V143.032H427.462V145.845C427.462 146.131 427.519 146.338 427.633 146.465C427.747 146.589 427.936 146.65 428.199 146.65C428.277 146.65 428.344 146.649 428.399 146.646C428.458 146.642 428.525 146.637 428.6 146.631V147.48C428.515 147.493 428.424 147.505 428.326 147.515C428.229 147.528 428.128 147.534 428.023 147.534ZM434.493 147.603C434.067 147.603 433.696 147.541 433.38 147.417C433.064 147.29 432.813 147.116 432.628 146.895C432.442 146.67 432.333 146.41 432.301 146.113V146.104H433.365V146.113C433.434 146.312 433.564 146.473 433.756 146.597C433.948 146.72 434.202 146.782 434.518 146.782C434.736 146.782 434.926 146.751 435.089 146.689C435.255 146.628 435.385 146.541 435.479 146.431C435.574 146.32 435.621 146.193 435.621 146.05V146.04C435.621 145.874 435.554 145.734 435.421 145.62C435.287 145.506 435.068 145.413 434.762 145.342L433.912 145.146C433.58 145.072 433.305 144.969 433.087 144.839C432.869 144.709 432.708 144.549 432.604 144.36C432.499 144.168 432.447 143.944 432.447 143.687V143.682C432.447 143.372 432.535 143.099 432.711 142.861C432.887 142.62 433.129 142.433 433.438 142.3C433.751 142.163 434.107 142.095 434.508 142.095C434.911 142.095 435.263 142.158 435.562 142.285C435.865 142.409 436.104 142.581 436.28 142.803C436.456 143.021 436.56 143.275 436.593 143.564V143.569H435.577V143.56C435.528 143.374 435.411 143.219 435.226 143.096C435.043 142.972 434.802 142.91 434.503 142.91C434.311 142.91 434.14 142.941 433.99 143.003C433.84 143.062 433.722 143.145 433.634 143.252C433.549 143.356 433.507 143.48 433.507 143.623V143.633C433.507 143.743 433.535 143.841 433.59 143.926C433.648 144.007 433.74 144.08 433.863 144.146C433.987 144.207 434.146 144.263 434.342 144.312L435.187 144.502C435.694 144.622 436.072 144.797 436.319 145.024C436.57 145.252 436.695 145.558 436.695 145.942V145.952C436.695 146.278 436.599 146.566 436.407 146.816C436.215 147.064 435.953 147.257 435.621 147.397C435.292 147.534 434.916 147.603 434.493 147.603ZM440.182 147.603C439.664 147.603 439.22 147.492 438.849 147.271C438.478 147.046 438.191 146.729 437.989 146.318C437.791 145.908 437.691 145.423 437.691 144.863V144.858C437.691 144.305 437.791 143.822 437.989 143.408C438.191 142.995 438.474 142.673 438.839 142.441C439.207 142.21 439.636 142.095 440.128 142.095C440.623 142.095 441.048 142.205 441.402 142.427C441.76 142.648 442.035 142.959 442.228 143.359C442.42 143.757 442.516 144.222 442.516 144.756V145.127H438.229V144.37H441.988L441.48 145.073V144.648C441.48 144.271 441.422 143.958 441.305 143.711C441.191 143.46 441.033 143.273 440.831 143.149C440.629 143.026 440.396 142.964 440.133 142.964C439.869 142.964 439.633 143.029 439.425 143.159C439.22 143.286 439.057 143.475 438.937 143.726C438.819 143.976 438.761 144.284 438.761 144.648V145.073C438.761 145.422 438.819 145.719 438.937 145.967C439.054 146.214 439.22 146.403 439.435 146.533C439.653 146.663 439.91 146.729 440.206 146.729C440.434 146.729 440.629 146.698 440.792 146.636C440.958 146.571 441.093 146.491 441.197 146.396C441.305 146.302 441.378 146.209 441.417 146.118L441.437 146.079H442.462L442.452 146.123C442.407 146.299 442.327 146.475 442.213 146.65C442.099 146.823 441.948 146.981 441.759 147.124C441.573 147.267 441.349 147.383 441.085 147.471C440.825 147.559 440.523 147.603 440.182 147.603ZM446.002 147.603C445.484 147.603 445.04 147.492 444.669 147.271C444.298 147.046 444.011 146.729 443.81 146.318C443.611 145.908 443.512 145.423 443.512 144.863V144.858C443.512 144.305 443.611 143.822 443.81 143.408C444.011 142.995 444.295 142.673 444.659 142.441C445.027 142.21 445.457 142.095 445.948 142.095C446.443 142.095 446.868 142.205 447.223 142.427C447.581 142.648 447.856 142.959 448.048 143.359C448.24 143.757 448.336 144.222 448.336 144.756V145.127H444.049V144.37H447.809L447.301 145.073V144.648C447.301 144.271 447.242 143.958 447.125 143.711C447.011 143.46 446.853 143.273 446.651 143.149C446.45 143.026 446.217 142.964 445.953 142.964C445.689 142.964 445.453 143.029 445.245 143.159C445.04 143.286 444.877 143.475 444.757 143.726C444.64 143.976 444.581 144.284 444.581 144.648V145.073C444.581 145.422 444.64 145.719 444.757 145.967C444.874 146.214 445.04 146.403 445.255 146.533C445.473 146.663 445.73 146.729 446.026 146.729C446.254 146.729 446.45 146.698 446.612 146.636C446.778 146.571 446.913 146.491 447.018 146.396C447.125 146.302 447.198 146.209 447.237 146.118L447.257 146.079H448.282L448.272 146.123C448.227 146.299 448.147 146.475 448.033 146.65C447.919 146.823 447.768 146.981 447.579 147.124C447.394 147.267 447.169 147.383 446.905 147.471C446.645 147.559 446.344 147.603 446.002 147.603ZM284.264 159.534C283.684 159.534 283.264 159.424 283.004 159.202C282.747 158.978 282.618 158.611 282.618 158.104V155.032H281.788V154.197H282.618V152.859H283.702V154.197H284.84V155.032H283.702V157.845C283.702 158.131 283.759 158.338 283.873 158.465C283.987 158.589 284.176 158.65 284.439 158.65C284.518 158.65 284.584 158.649 284.64 158.646C284.698 158.642 284.765 158.637 284.84 158.631V159.48C284.755 159.493 284.664 159.505 284.566 159.515C284.469 159.528 284.368 159.534 284.264 159.534ZM286.129 159.5V152.117H287.188V154.998H287.271C287.402 154.715 287.594 154.493 287.848 154.334C288.102 154.174 288.422 154.095 288.81 154.095C289.203 154.095 289.537 154.171 289.811 154.324C290.084 154.477 290.292 154.702 290.436 154.998C290.579 155.291 290.65 155.647 290.65 156.067V159.5H289.586V156.316C289.586 155.874 289.493 155.545 289.308 155.33C289.125 155.112 288.839 155.003 288.448 155.003C288.191 155.003 287.968 155.06 287.779 155.174C287.59 155.285 287.444 155.444 287.34 155.652C287.239 155.857 287.188 156.103 287.188 156.39V159.5H286.129ZM294.352 159.603C293.834 159.603 293.39 159.492 293.019 159.271C292.647 159.046 292.361 158.729 292.159 158.318C291.961 157.908 291.861 157.423 291.861 156.863V156.858C291.861 156.305 291.961 155.822 292.159 155.408C292.361 154.995 292.644 154.673 293.009 154.441C293.377 154.21 293.806 154.095 294.298 154.095C294.793 154.095 295.217 154.205 295.572 154.427C295.93 154.648 296.205 154.959 296.397 155.359C296.59 155.757 296.686 156.222 296.686 156.756V157.127H292.398V156.37H296.158L295.65 157.073V156.648C295.65 156.271 295.592 155.958 295.475 155.711C295.361 155.46 295.203 155.273 295.001 155.149C294.799 155.026 294.566 154.964 294.303 154.964C294.039 154.964 293.803 155.029 293.595 155.159C293.39 155.286 293.227 155.475 293.106 155.726C292.989 155.976 292.931 156.284 292.931 156.648V157.073C292.931 157.422 292.989 157.719 293.106 157.967C293.224 158.214 293.39 158.403 293.604 158.533C293.823 158.663 294.08 158.729 294.376 158.729C294.604 158.729 294.799 158.698 294.962 158.636C295.128 158.571 295.263 158.491 295.367 158.396C295.475 158.302 295.548 158.209 295.587 158.118L295.606 158.079H296.632L296.622 158.123C296.576 158.299 296.497 158.475 296.383 158.65C296.269 158.823 296.118 158.981 295.929 159.124C295.743 159.267 295.519 159.383 295.255 159.471C294.994 159.559 294.693 159.603 294.352 159.603ZM302.901 159.603C302.387 159.603 301.943 159.492 301.568 159.271C301.197 159.046 300.911 158.727 300.709 158.313C300.507 157.9 300.406 157.407 300.406 156.834V156.824C300.406 156.261 300.506 155.776 300.704 155.369C300.906 154.962 301.192 154.648 301.563 154.427C301.938 154.205 302.382 154.095 302.896 154.095C303.342 154.095 303.725 154.173 304.044 154.329C304.366 154.482 304.622 154.694 304.811 154.964C305.003 155.231 305.123 155.535 305.172 155.877L305.177 155.901H304.156L304.151 155.892C304.093 155.631 303.958 155.415 303.746 155.242C303.535 155.066 303.253 154.979 302.901 154.979C302.608 154.979 302.356 155.053 302.145 155.203C301.933 155.35 301.77 155.561 301.656 155.838C301.546 156.115 301.49 156.443 301.49 156.824V156.834C301.49 157.225 301.547 157.56 301.661 157.84C301.775 158.12 301.938 158.336 302.149 158.489C302.361 158.639 302.612 158.714 302.901 158.714C303.233 158.714 303.502 158.641 303.707 158.494C303.915 158.348 304.062 158.131 304.146 157.845L304.156 157.82L305.172 157.815L305.162 157.859C305.1 158.204 304.975 158.507 304.786 158.768C304.597 159.028 304.345 159.233 304.029 159.383C303.717 159.529 303.341 159.603 302.901 159.603ZM308.619 159.603C308.102 159.603 307.654 159.492 307.276 159.271C306.902 159.049 306.614 158.733 306.412 158.323C306.21 157.91 306.109 157.42 306.109 156.854V156.844C306.109 156.274 306.21 155.784 306.412 155.374C306.617 154.964 306.907 154.648 307.281 154.427C307.659 154.205 308.105 154.095 308.619 154.095C309.137 154.095 309.583 154.205 309.957 154.427C310.331 154.645 310.619 154.961 310.821 155.374C311.026 155.784 311.129 156.274 311.129 156.844V156.854C311.129 157.42 311.026 157.91 310.821 158.323C310.619 158.733 310.331 159.049 309.957 159.271C309.586 159.492 309.14 159.603 308.619 159.603ZM308.619 158.714C308.922 158.714 309.179 158.641 309.391 158.494C309.602 158.344 309.763 158.131 309.874 157.854C309.985 157.578 310.04 157.244 310.04 156.854V156.844C310.04 156.45 309.985 156.115 309.874 155.838C309.763 155.561 309.602 155.35 309.391 155.203C309.179 155.053 308.922 154.979 308.619 154.979C308.316 154.979 308.059 155.053 307.848 155.203C307.636 155.35 307.473 155.561 307.359 155.838C307.249 156.115 307.193 156.45 307.193 156.844V156.854C307.193 157.244 307.249 157.578 307.359 157.854C307.473 158.131 307.636 158.344 307.848 158.494C308.059 158.641 308.316 158.714 308.619 158.714ZM312.389 159.5V154.197H313.448V154.998H313.531C313.661 154.715 313.854 154.493 314.107 154.334C314.361 154.174 314.682 154.095 315.069 154.095C315.665 154.095 316.121 154.266 316.437 154.607C316.752 154.949 316.91 155.436 316.91 156.067V159.5H315.846V156.316C315.846 155.874 315.753 155.545 315.567 155.33C315.385 155.112 315.099 155.003 314.708 155.003C314.451 155.003 314.228 155.06 314.039 155.174C313.85 155.285 313.704 155.444 313.6 155.652C313.499 155.857 313.448 156.103 313.448 156.39V159.5H312.389ZM320.387 159.534C319.807 159.534 319.387 159.424 319.127 159.202C318.87 158.978 318.741 158.611 318.741 158.104V155.032H317.911V154.197H318.741V152.859H319.825V154.197H320.963V155.032H319.825V157.845C319.825 158.131 319.882 158.338 319.996 158.465C320.11 158.589 320.299 158.65 320.562 158.65C320.641 158.65 320.707 158.649 320.763 158.646C320.821 158.642 320.888 158.637 320.963 158.631V159.48C320.878 159.493 320.787 159.505 320.689 159.515C320.592 159.528 320.491 159.534 320.387 159.534ZM324.371 159.603C323.854 159.603 323.409 159.492 323.038 159.271C322.667 159.046 322.381 158.729 322.179 158.318C321.98 157.908 321.881 157.423 321.881 156.863V156.858C321.881 156.305 321.98 155.822 322.179 155.408C322.381 154.995 322.664 154.673 323.028 154.441C323.396 154.21 323.826 154.095 324.317 154.095C324.812 154.095 325.237 154.205 325.592 154.427C325.95 154.648 326.225 154.959 326.417 155.359C326.609 155.757 326.705 156.222 326.705 156.756V157.127H322.418V156.37H326.178L325.67 157.073V156.648C325.67 156.271 325.611 155.958 325.494 155.711C325.38 155.46 325.222 155.273 325.021 155.149C324.819 155.026 324.586 154.964 324.322 154.964C324.059 154.964 323.823 155.029 323.614 155.159C323.409 155.286 323.246 155.475 323.126 155.726C323.009 155.976 322.95 156.284 322.95 156.648V157.073C322.95 157.422 323.009 157.719 323.126 157.967C323.243 158.214 323.409 158.403 323.624 158.533C323.842 158.663 324.099 158.729 324.396 158.729C324.623 158.729 324.819 158.698 324.981 158.636C325.147 158.571 325.283 158.491 325.387 158.396C325.494 158.302 325.567 158.209 325.606 158.118L325.626 158.079H326.651L326.642 158.123C326.596 158.299 326.516 158.475 326.402 158.65C326.288 158.823 326.137 158.981 325.948 159.124C325.763 159.267 325.538 159.383 325.274 159.471C325.014 159.559 324.713 159.603 324.371 159.603ZM327.965 159.5V154.197H329.024V154.998H329.107C329.238 154.715 329.43 154.493 329.684 154.334C329.938 154.174 330.258 154.095 330.646 154.095C331.241 154.095 331.697 154.266 332.013 154.607C332.328 154.949 332.486 155.436 332.486 156.067V159.5H331.422V156.316C331.422 155.874 331.329 155.545 331.144 155.33C330.961 155.112 330.675 155.003 330.284 155.003C330.027 155.003 329.804 155.06 329.615 155.174C329.426 155.285 329.28 155.444 329.176 155.652C329.075 155.857 329.024 156.103 329.024 156.39V159.5H327.965ZM335.963 159.534C335.383 159.534 334.964 159.424 334.703 159.202C334.446 158.978 334.317 158.611 334.317 158.104V155.032H333.487V154.197H334.317V152.859H335.401V154.197H336.539V155.032H335.401V157.845C335.401 158.131 335.458 158.338 335.572 158.465C335.686 158.589 335.875 158.65 336.139 158.65C336.217 158.65 336.284 158.649 336.339 158.646C336.397 158.642 336.464 158.637 336.539 158.631V159.48C336.454 159.493 336.363 159.505 336.266 159.515C336.168 159.528 336.067 159.534 335.963 159.534ZM339.63 159.603C339.203 159.603 338.832 159.541 338.517 159.417C338.201 159.29 337.95 159.116 337.765 158.895C337.579 158.67 337.47 158.41 337.438 158.113V158.104H338.502V158.113C338.57 158.312 338.701 158.473 338.893 158.597C339.085 158.72 339.339 158.782 339.654 158.782C339.872 158.782 340.063 158.751 340.226 158.689C340.392 158.628 340.522 158.541 340.616 158.431C340.711 158.32 340.758 158.193 340.758 158.05V158.04C340.758 157.874 340.691 157.734 340.558 157.62C340.424 157.506 340.204 157.413 339.898 157.342L339.049 157.146C338.717 157.072 338.442 156.969 338.224 156.839C338.006 156.709 337.844 156.549 337.74 156.36C337.636 156.168 337.584 155.944 337.584 155.687V155.682C337.584 155.372 337.672 155.099 337.848 154.861C338.023 154.62 338.266 154.433 338.575 154.3C338.888 154.163 339.244 154.095 339.645 154.095C340.048 154.095 340.4 154.158 340.699 154.285C341.002 154.409 341.241 154.581 341.417 154.803C341.593 155.021 341.697 155.275 341.729 155.564V155.569H340.714V155.56C340.665 155.374 340.548 155.219 340.362 155.096C340.18 154.972 339.939 154.91 339.64 154.91C339.448 154.91 339.277 154.941 339.127 155.003C338.977 155.062 338.858 155.145 338.771 155.252C338.686 155.356 338.644 155.48 338.644 155.623V155.633C338.644 155.743 338.671 155.841 338.727 155.926C338.785 156.007 338.876 156.08 339 156.146C339.124 156.207 339.283 156.263 339.479 156.312L340.323 156.502C340.831 156.622 341.209 156.797 341.456 157.024C341.707 157.252 341.832 157.558 341.832 157.942V157.952C341.832 158.278 341.736 158.566 341.544 158.816C341.352 159.064 341.09 159.257 340.758 159.397C340.429 159.534 340.053 159.603 339.63 159.603ZM348.062 159.603C347.545 159.603 347.097 159.492 346.72 159.271C346.345 159.049 346.057 158.733 345.855 158.323C345.654 157.91 345.553 157.42 345.553 156.854V156.844C345.553 156.274 345.654 155.784 345.855 155.374C346.061 154.964 346.35 154.648 346.725 154.427C347.102 154.205 347.548 154.095 348.062 154.095C348.58 154.095 349.026 154.205 349.4 154.427C349.775 154.645 350.063 154.961 350.265 155.374C350.47 155.784 350.572 156.274 350.572 156.844V156.854C350.572 157.42 350.47 157.91 350.265 158.323C350.063 158.733 349.775 159.049 349.4 159.271C349.029 159.492 348.583 159.603 348.062 159.603ZM348.062 158.714C348.365 158.714 348.622 158.641 348.834 158.494C349.046 158.344 349.207 158.131 349.317 157.854C349.428 157.578 349.483 157.244 349.483 156.854V156.844C349.483 156.45 349.428 156.115 349.317 155.838C349.207 155.561 349.046 155.35 348.834 155.203C348.622 155.053 348.365 154.979 348.062 154.979C347.76 154.979 347.503 155.053 347.291 155.203C347.079 155.35 346.917 155.561 346.803 155.838C346.692 156.115 346.637 156.45 346.637 156.844V156.854C346.637 157.244 346.692 157.578 346.803 157.854C346.917 158.131 347.079 158.344 347.291 158.494C347.503 158.641 347.76 158.714 348.062 158.714ZM352.208 159.5V155.032H351.334V154.197H352.208V153.641C352.208 153.286 352.267 152.993 352.384 152.762C352.504 152.527 352.687 152.353 352.931 152.239C353.175 152.125 353.482 152.068 353.854 152.068C353.971 152.068 354.08 152.073 354.181 152.083C354.285 152.09 354.384 152.101 354.479 152.117V152.898C354.43 152.889 354.369 152.882 354.298 152.879C354.229 152.872 354.155 152.869 354.073 152.869C353.78 152.869 353.57 152.939 353.443 153.079C353.32 153.219 353.258 153.423 353.258 153.689V154.197H354.43V155.032H353.268V159.5H352.208ZM360.348 159.534C359.768 159.534 359.348 159.424 359.088 159.202C358.831 158.978 358.702 158.611 358.702 158.104V155.032H357.872V154.197H358.702V152.859H359.786V154.197H360.924V155.032H359.786V157.845C359.786 158.131 359.843 158.338 359.957 158.465C360.071 158.589 360.26 158.65 360.523 158.65C360.602 158.65 360.668 158.649 360.724 158.646C360.782 158.642 360.849 158.637 360.924 158.631V159.48C360.839 159.493 360.748 159.505 360.65 159.515C360.553 159.528 360.452 159.534 360.348 159.534ZM362.213 159.5V152.117H363.272V154.998H363.355C363.486 154.715 363.678 154.493 363.932 154.334C364.186 154.174 364.506 154.095 364.894 154.095C365.287 154.095 365.621 154.171 365.895 154.324C366.168 154.477 366.376 154.702 366.52 154.998C366.663 155.291 366.734 155.647 366.734 156.067V159.5H365.67V156.316C365.67 155.874 365.577 155.545 365.392 155.33C365.209 155.112 364.923 155.003 364.532 155.003C364.275 155.003 364.052 155.06 363.863 155.174C363.674 155.285 363.528 155.444 363.424 155.652C363.323 155.857 363.272 156.103 363.272 156.39V159.5H362.213ZM368.224 159.5V154.197H369.288V159.5H368.224ZM368.761 153.25C368.578 153.25 368.422 153.185 368.292 153.055C368.162 152.924 368.097 152.768 368.097 152.586C368.097 152.404 368.162 152.249 368.292 152.122C368.422 151.992 368.578 151.927 368.761 151.927C368.943 151.927 369.099 151.992 369.229 152.122C369.36 152.249 369.425 152.404 369.425 152.586C369.425 152.768 369.36 152.924 369.229 153.055C369.099 153.185 368.943 153.25 368.761 153.25ZM372.755 159.603C372.328 159.603 371.957 159.541 371.642 159.417C371.326 159.29 371.075 159.116 370.89 158.895C370.704 158.67 370.595 158.41 370.562 158.113V158.104H371.627V158.113C371.695 158.312 371.826 158.473 372.018 158.597C372.21 158.72 372.464 158.782 372.779 158.782C372.997 158.782 373.188 158.751 373.351 158.689C373.517 158.628 373.647 158.541 373.741 158.431C373.836 158.32 373.883 158.193 373.883 158.05V158.04C373.883 157.874 373.816 157.734 373.683 157.62C373.549 157.506 373.329 157.413 373.023 157.342L372.174 157.146C371.842 157.072 371.567 156.969 371.349 156.839C371.131 156.709 370.969 156.549 370.865 156.36C370.761 156.168 370.709 155.944 370.709 155.687V155.682C370.709 155.372 370.797 155.099 370.973 154.861C371.148 154.62 371.391 154.433 371.7 154.3C372.013 154.163 372.369 154.095 372.77 154.095C373.173 154.095 373.525 154.158 373.824 154.285C374.127 154.409 374.366 154.581 374.542 154.803C374.718 155.021 374.822 155.275 374.854 155.564V155.569H373.839V155.56C373.79 155.374 373.673 155.219 373.487 155.096C373.305 154.972 373.064 154.91 372.765 154.91C372.573 154.91 372.402 154.941 372.252 155.003C372.102 155.062 371.983 155.145 371.896 155.252C371.811 155.356 371.769 155.48 371.769 155.623V155.633C371.769 155.743 371.796 155.841 371.852 155.926C371.91 156.007 372.001 156.08 372.125 156.146C372.249 156.207 372.408 156.263 372.604 156.312L373.448 156.502C373.956 156.622 374.334 156.797 374.581 157.024C374.832 157.252 374.957 157.558 374.957 157.942V157.952C374.957 158.278 374.861 158.566 374.669 158.816C374.477 159.064 374.215 159.257 373.883 159.397C373.554 159.534 373.178 159.603 372.755 159.603ZM379.957 159.5L378.497 154.197H379.566L380.514 158.289H380.597L381.686 154.197H382.696L383.79 158.289H383.868L384.82 154.197H385.87L384.415 159.5H383.316L382.218 155.545H382.135L381.046 159.5H379.957ZM388.98 159.603C388.463 159.603 388.019 159.492 387.647 159.271C387.276 159.046 386.99 158.729 386.788 158.318C386.59 157.908 386.49 157.423 386.49 156.863V156.858C386.49 156.305 386.59 155.822 386.788 155.408C386.99 154.995 387.273 154.673 387.638 154.441C388.006 154.21 388.435 154.095 388.927 154.095C389.422 154.095 389.846 154.205 390.201 154.427C390.559 154.648 390.834 154.959 391.026 155.359C391.218 155.757 391.314 156.222 391.314 156.756V157.127H387.027V156.37H390.787L390.279 157.073V156.648C390.279 156.271 390.221 155.958 390.104 155.711C389.99 155.46 389.832 155.273 389.63 155.149C389.428 155.026 389.195 154.964 388.932 154.964C388.668 154.964 388.432 155.029 388.224 155.159C388.019 155.286 387.856 155.475 387.735 155.726C387.618 155.976 387.56 156.284 387.56 156.648V157.073C387.56 157.422 387.618 157.719 387.735 157.967C387.853 158.214 388.019 158.403 388.233 158.533C388.451 158.663 388.709 158.729 389.005 158.729C389.233 158.729 389.428 158.698 389.591 158.636C389.757 158.571 389.892 158.491 389.996 158.396C390.104 158.302 390.177 158.209 390.216 158.118L390.235 158.079H391.261L391.251 158.123C391.205 158.299 391.126 158.475 391.012 158.65C390.898 158.823 390.746 158.981 390.558 159.124C390.372 159.267 390.147 159.383 389.884 159.471C389.623 159.559 389.322 159.603 388.98 159.603ZM395.396 159.588C395.149 159.588 394.921 159.552 394.713 159.48C394.505 159.406 394.319 159.3 394.156 159.163C393.997 159.023 393.867 158.857 393.766 158.665H393.683V159.5H392.623V152.117H393.683V155.037H393.766C393.86 154.845 393.989 154.681 394.151 154.544C394.314 154.404 394.501 154.297 394.713 154.222C394.924 154.144 395.152 154.104 395.396 154.104C395.846 154.104 396.235 154.217 396.563 154.441C396.892 154.663 397.146 154.979 397.325 155.389C397.504 155.799 397.594 156.284 397.594 156.844V156.854C397.594 157.41 397.503 157.894 397.32 158.304C397.141 158.714 396.887 159.031 396.559 159.256C396.23 159.477 395.842 159.588 395.396 159.588ZM395.094 158.68C395.39 158.68 395.644 158.606 395.855 158.46C396.067 158.313 396.228 158.104 396.339 157.83C396.453 157.557 396.51 157.231 396.51 156.854V156.844C396.51 156.463 396.453 156.137 396.339 155.867C396.228 155.594 396.067 155.384 395.855 155.237C395.644 155.088 395.39 155.013 395.094 155.013C394.801 155.013 394.547 155.088 394.332 155.237C394.117 155.384 393.953 155.594 393.839 155.867C393.725 156.141 393.668 156.466 393.668 156.844V156.854C393.668 157.228 393.725 157.553 393.839 157.83C393.953 158.104 394.117 158.313 394.332 158.46C394.547 158.606 394.801 158.68 395.094 158.68ZM400.782 159.603C400.356 159.603 399.985 159.541 399.669 159.417C399.353 159.29 399.103 159.116 398.917 158.895C398.731 158.67 398.622 158.41 398.59 158.113V158.104H399.654V158.113C399.723 158.312 399.853 158.473 400.045 158.597C400.237 158.72 400.491 158.782 400.807 158.782C401.025 158.782 401.215 158.751 401.378 158.689C401.544 158.628 401.674 158.541 401.769 158.431C401.863 158.32 401.91 158.193 401.91 158.05V158.04C401.91 157.874 401.843 157.734 401.71 157.62C401.576 157.506 401.357 157.413 401.051 157.342L400.201 157.146C399.869 157.072 399.594 156.969 399.376 156.839C399.158 156.709 398.997 156.549 398.893 156.36C398.788 156.168 398.736 155.944 398.736 155.687V155.682C398.736 155.372 398.824 155.099 399 154.861C399.176 154.62 399.418 154.433 399.728 154.3C400.04 154.163 400.396 154.095 400.797 154.095C401.201 154.095 401.552 154.158 401.852 154.285C402.154 154.409 402.394 154.581 402.569 154.803C402.745 155.021 402.849 155.275 402.882 155.564V155.569H401.866V155.56C401.817 155.374 401.7 155.219 401.515 155.096C401.332 154.972 401.091 154.91 400.792 154.91C400.6 154.91 400.429 154.941 400.279 155.003C400.13 155.062 400.011 155.145 399.923 155.252C399.838 155.356 399.796 155.48 399.796 155.623V155.633C399.796 155.743 399.824 155.841 399.879 155.926C399.938 156.007 400.029 156.08 400.152 156.146C400.276 156.207 400.436 156.263 400.631 156.312L401.476 156.502C401.983 156.622 402.361 156.797 402.608 157.024C402.859 157.252 402.984 157.558 402.984 157.942V157.952C402.984 158.278 402.888 158.566 402.696 158.816C402.504 159.064 402.242 159.257 401.91 159.397C401.581 159.534 401.205 159.603 400.782 159.603ZM404.259 159.5V154.197H405.323V159.5H404.259ZM404.796 153.25C404.614 153.25 404.457 153.185 404.327 153.055C404.197 152.924 404.132 152.768 404.132 152.586C404.132 152.404 404.197 152.249 404.327 152.122C404.457 151.992 404.614 151.927 404.796 151.927C404.978 151.927 405.134 151.992 405.265 152.122C405.395 152.249 405.46 152.404 405.46 152.586C405.46 152.768 405.395 152.924 405.265 153.055C405.134 153.185 404.978 153.25 404.796 153.25ZM408.863 159.534C408.284 159.534 407.864 159.424 407.604 159.202C407.346 158.978 407.218 158.611 407.218 158.104V155.032H406.388V154.197H407.218V152.859H408.302V154.197H409.439V155.032H408.302V157.845C408.302 158.131 408.359 158.338 408.473 158.465C408.587 158.589 408.775 158.65 409.039 158.65C409.117 158.65 409.184 158.649 409.239 158.646C409.298 158.642 409.365 158.637 409.439 158.631V159.48C409.355 159.493 409.264 159.505 409.166 159.515C409.068 159.528 408.967 159.534 408.863 159.534ZM412.848 159.603C412.33 159.603 411.886 159.492 411.515 159.271C411.144 159.046 410.857 158.729 410.655 158.318C410.457 157.908 410.357 157.423 410.357 156.863V156.858C410.357 156.305 410.457 155.822 410.655 155.408C410.857 154.995 411.14 154.673 411.505 154.441C411.873 154.21 412.302 154.095 412.794 154.095C413.289 154.095 413.714 154.205 414.068 154.427C414.426 154.648 414.701 154.959 414.894 155.359C415.086 155.757 415.182 156.222 415.182 156.756V157.127H410.895V156.37H414.654L414.146 157.073V156.648C414.146 156.271 414.088 155.958 413.971 155.711C413.857 155.46 413.699 155.273 413.497 155.149C413.295 155.026 413.062 154.964 412.799 154.964C412.535 154.964 412.299 155.029 412.091 155.159C411.886 155.286 411.723 155.475 411.603 155.726C411.485 155.976 411.427 156.284 411.427 156.648V157.073C411.427 157.422 411.485 157.719 411.603 157.967C411.72 158.214 411.886 158.403 412.101 158.533C412.319 158.663 412.576 158.729 412.872 158.729C413.1 158.729 413.295 158.698 413.458 158.636C413.624 158.571 413.759 158.491 413.863 158.396C413.971 158.302 414.044 158.209 414.083 158.118L414.103 158.079H415.128L415.118 158.123C415.073 158.299 414.993 158.475 414.879 158.65C414.765 158.823 414.614 158.981 414.425 159.124C414.239 159.267 414.015 159.383 413.751 159.471C413.491 159.559 413.189 159.603 412.848 159.603Z" fill="black" fill-opacity="0.44"/>
</g>
<rect x="273.25" y="48.25" width="214.5" height="121.5" rx="16.25" stroke="black" stroke-opacity="0.2" stroke-width="0.5"/>
<defs>
<clipPath id="clip0_4613_3024">
<rect x="0.5" y="0.5" width="282" height="97.0996" rx="16" fill="white"/>
</clipPath>
<clipPath id="clip1_4613_3024">
<rect width="282" height="97.0996" fill="white" transform="translate(0.5 0.5)"/>
</clipPath>
<clipPath id="clip2_4613_3024">
<rect x="273.5" y="48.5" width="214" height="121" rx="16" fill="white"/>
</clipPath>
<clipPath id="clip3_4613_3024">
<rect width="214" height="82" fill="white" transform="translate(273.5 48.5)"/>
</clipPath>
</defs>
</svg>
