<svg width="119" height="32" viewBox="0 0 119 32" fill="none" xmlns="http://www.w3.org/2000/svg">
<rect width="119" height="32" rx="8" transform="matrix(1 0 0 -1 0 32)" fill="#F2F8FF"/>
<g clip-path="url(#clip0_4560_2971)">
<path fill-rule="evenodd" clip-rule="evenodd" d="M17.0085 8.88892C17.9596 8.88892 18.8276 9.27559 19.4665 9.8857C19.82 9.76914 20.1736 9.71656 20.5393 9.71653C22.4537 9.71653 24.1129 11.2588 24.1129 13.3211C24.1129 13.6059 24.0732 13.8891 24.01 14.1708C24.7549 14.8734 25.1695 15.8357 25.1695 16.8276C25.1695 18.351 24.1656 19.8454 22.5952 20.2851C22.2442 21.9002 20.8162 23.1111 19.1073 23.1111C18.1556 23.111 17.2872 22.7241 16.6483 22.1134C16.295 22.2298 15.942 22.2835 15.5765 22.2835C13.662 22.2835 12.0038 20.7412 12.0038 18.6789C12.0038 18.3939 12.0416 18.1102 12.1048 17.8283C11.3607 17.1258 10.9473 16.1639 10.9473 15.1724C10.9473 13.6488 11.9507 12.1535 13.5215 11.7139C13.8729 10.0994 15.2999 8.88892 17.0085 8.88892ZM20.6088 19.5911C20.6087 19.7037 20.5853 19.8057 20.5335 19.8949C20.4818 19.984 20.4055 20.0544 20.3106 20.1102L17.704 21.6318C18.1197 21.915 18.5964 22.0729 19.1073 22.073C20.5991 22.073 21.7073 20.9781 21.7073 19.5344V16.4489C21.7073 16.4051 21.6985 16.3725 21.6854 16.348C21.6726 16.3243 21.6523 16.3016 21.6177 16.2817L20.6088 15.6924V19.5911ZM21.5387 22.0125C21.4838 22.0666 21.4264 22.1178 21.3681 22.1682C21.5003 22.0539 21.6249 21.9309 21.7387 21.7981L21.5387 22.0125ZM17.6982 21.7491C17.7221 21.7646 17.7474 21.7776 17.7716 21.7923C17.7398 21.773 17.7075 21.7544 17.6763 21.7337L17.6982 21.7491ZM16.2511 20.0266C16.0787 20.128 15.9009 20.1401 15.7271 20.0641L15.6528 20.0266L13.0423 18.503C13.0364 18.5627 13.0328 18.621 13.0328 18.6789C13.0328 20.096 14.142 21.2454 15.6604 21.2454C16.0914 21.2454 16.5046 21.1504 16.8484 20.9503L19.5037 19.4076C19.5386 19.3874 19.5594 19.3642 19.5723 19.3403C19.5854 19.3158 19.5942 19.284 19.5942 19.2403V18.0772L16.2511 20.0266ZM20.1639 13.0126C20.14 13.0126 20.1113 13.0196 20.0734 13.0414L19.0797 13.6162L22.4237 15.5781L22.4914 15.6232C22.5552 15.6709 22.6079 15.7275 22.6467 15.7943C22.6984 15.8836 22.7229 15.9855 22.7229 16.0981V19.1288C23.5933 18.7067 24.1395 17.8053 24.1396 16.8276C24.1396 15.9901 23.7021 15.1292 23.044 14.6707L22.9096 14.5841L20.2544 13.0414C20.2166 13.0197 20.1878 13.0126 20.1639 13.0126ZM13.4072 12.8703C12.5344 13.2915 11.9763 14.1822 11.9762 15.1724C11.9762 16.0657 12.474 16.9859 13.2062 17.4159L15.8614 18.9587L15.9119 18.9808C15.9268 18.9853 15.9399 18.9875 15.9519 18.9875C15.9758 18.9875 16.0045 18.9805 16.0424 18.9587L17.0352 18.3839L13.7063 16.4355C13.6115 16.3796 13.5352 16.3093 13.4834 16.2201C13.4316 16.1309 13.4073 16.0289 13.4072 15.9164V12.8703ZM16.5216 15.0753V16.9238L18.0574 17.7937L19.5942 16.9238V15.0753L18.0574 14.2054L16.5216 15.0753ZM24.2025 17.2563C24.2043 17.2451 24.2075 17.234 24.2091 17.2227L24.2101 17.2102C24.2079 17.2257 24.2049 17.241 24.2025 17.2563ZM17.0085 9.92703C15.5172 9.92704 14.4228 11.0213 14.4228 12.4656V15.5511C14.4228 15.595 14.4306 15.6276 14.4438 15.6521C14.4566 15.6759 14.4776 15.6983 14.5123 15.7184L15.507 16.3047V12.4099C15.507 12.2971 15.5314 12.1945 15.5832 12.1052C15.635 12.0162 15.7113 11.9456 15.8061 11.8898L18.4118 10.3673C17.9962 10.0843 17.5192 9.92703 17.0085 9.92703ZM23.0983 14.5899C23.4188 14.813 23.6889 15.1258 23.8852 15.4848C23.8291 15.3821 23.767 15.283 23.6994 15.1888C23.6656 15.1416 23.6302 15.0959 23.5937 15.0513C23.4846 14.9179 23.3642 14.796 23.2336 14.6899C23.1899 14.6544 23.145 14.6208 23.0992 14.589L23.0983 14.5899ZM20.4564 10.7546C20.0253 10.7546 19.6113 10.8496 19.2674 11.0497L16.6121 12.5925C16.5772 12.6126 16.5564 12.6359 16.5436 12.6598C16.5305 12.6842 16.5217 12.7161 16.5216 12.7598V13.9219L19.8647 11.96C20.0374 11.8585 20.2157 11.8453 20.3897 11.9216L20.464 11.96L23.0811 13.5066C23.0829 13.4529 23.083 13.3999 23.083 13.349C23.083 12.0105 22.0664 10.7548 20.4564 10.7546ZM21.2748 9.89339C21.0918 9.85351 20.9043 9.82801 20.7136 9.81842L20.8861 9.83187C21.0175 9.84511 21.1473 9.86561 21.2748 9.89339Z" fill="#007AFD"/>
</g>
<path d="M34.376 20L37.1743 12.2495H38.1465V13.6084H37.7812L35.6436 20H34.376ZM35.7241 17.9053L36.0625 16.9385H39.5913L39.9297 17.9053H35.7241ZM40.0049 20L37.8726 13.6084V12.2495H38.4795L41.2725 20H40.0049ZM44.479 20.1128C44.0099 20.1128 43.6017 20.0448 43.2544 19.9087C42.9071 19.769 42.6313 19.5775 42.4272 19.334C42.2231 19.0869 42.1032 18.8005 42.0674 18.4746V18.4639H43.2383V18.4746C43.3135 18.693 43.4567 18.8703 43.668 19.0063C43.8792 19.1424 44.1585 19.2104 44.5059 19.2104C44.7458 19.2104 44.9552 19.1764 45.1343 19.1084C45.3169 19.0404 45.4601 18.9455 45.564 18.8237C45.6678 18.702 45.7197 18.5623 45.7197 18.4048V18.394C45.7197 18.2114 45.6463 18.0575 45.4995 17.9321C45.3527 17.8068 45.111 17.7048 44.7744 17.626L43.8398 17.4111C43.4746 17.3288 43.172 17.216 42.9321 17.0728C42.6922 16.9295 42.515 16.7541 42.4004 16.5464C42.2858 16.3351 42.2285 16.0881 42.2285 15.8052V15.7998C42.2285 15.4596 42.3252 15.1589 42.5186 14.8975C42.7119 14.6325 42.9787 14.4266 43.3188 14.2798C43.6626 14.1294 44.0547 14.0542 44.4951 14.0542C44.9391 14.0542 45.3258 14.124 45.6553 14.2637C45.9883 14.3997 46.2515 14.5895 46.4448 14.833C46.6382 15.0729 46.7528 15.3522 46.7886 15.6709V15.6763H45.6714V15.6655C45.6177 15.4614 45.4888 15.2913 45.2847 15.1553C45.0841 15.0192 44.8192 14.9512 44.4897 14.9512C44.2785 14.9512 44.0905 14.9852 43.9258 15.0532C43.7611 15.1177 43.6304 15.209 43.5337 15.3271C43.4406 15.4417 43.394 15.5778 43.394 15.7354V15.7461C43.394 15.8678 43.4245 15.9753 43.4854 16.0684C43.5498 16.1579 43.6501 16.2384 43.7861 16.3101C43.9222 16.3781 44.0977 16.439 44.3125 16.4927L45.2417 16.7021C45.8003 16.8346 46.2157 17.0262 46.4878 17.2769C46.7635 17.5275 46.9014 17.8641 46.9014 18.2866V18.2974C46.9014 18.6554 46.7957 18.9723 46.5845 19.248C46.3732 19.5202 46.085 19.7332 45.7197 19.8872C45.3581 20.0376 44.9445 20.1128 44.479 20.1128ZM48.3408 20V11.8789H49.5063V20H48.3408ZM52.0146 20L49.9199 17.2661L50.7847 16.541L53.438 20H52.0146ZM49.3936 17.9966L49.3452 16.6216H49.5977L51.9072 14.167H53.2769L50.645 16.8311L50.1938 17.2017L49.3936 17.9966ZM60.8071 20.188C60.091 20.188 59.4697 20.0233 58.9434 19.6938C58.4206 19.3644 58.0177 18.8971 57.7349 18.292C57.452 17.6868 57.3105 16.9671 57.3105 16.1328V16.1221C57.3105 15.2842 57.452 14.5627 57.7349 13.9575C58.0177 13.3524 58.4206 12.8851 58.9434 12.5557C59.4661 12.2262 60.0874 12.0615 60.8071 12.0615C61.3765 12.0615 61.8903 12.1743 62.3486 12.3999C62.8105 12.6219 63.1883 12.9299 63.4819 13.3237C63.7791 13.7176 63.96 14.1706 64.0244 14.6826V14.7148H62.8267L62.8213 14.6934C62.7497 14.3747 62.619 14.099 62.4292 13.8662C62.2394 13.6335 62.0067 13.4526 61.731 13.3237C61.4552 13.1948 61.1473 13.1304 60.8071 13.1304C60.3452 13.1304 59.9442 13.2521 59.604 13.4956C59.2674 13.7391 59.006 14.0846 58.8198 14.5322C58.6372 14.9762 58.5459 15.5062 58.5459 16.1221V16.1328C58.5459 16.7415 58.6372 17.2697 58.8198 17.7173C59.006 18.1649 59.2674 18.5104 59.604 18.7539C59.9442 18.9974 60.347 19.1191 60.8125 19.1191C61.1527 19.1191 61.4606 19.0618 61.7363 18.9473C62.0156 18.8327 62.2484 18.6698 62.4346 18.4585C62.6208 18.2437 62.7479 17.9912 62.8159 17.7012L62.8267 17.6797H64.0298L64.0244 17.7065C63.9492 18.2043 63.7666 18.6393 63.4766 19.0117C63.1865 19.3841 62.8141 19.6742 62.3594 19.8818C61.9046 20.0859 61.3872 20.188 60.8071 20.188ZM65.5283 20V11.8789H66.6938V15.0479H66.7852C66.9284 14.7363 67.1396 14.4928 67.4189 14.3174C67.6982 14.1419 68.0509 14.0542 68.4771 14.0542C68.9103 14.0542 69.2773 14.1383 69.5781 14.3066C69.8789 14.4749 70.1081 14.722 70.2656 15.0479C70.4232 15.3701 70.502 15.7622 70.502 16.2241V20H69.3311V16.498C69.3311 16.0111 69.229 15.6494 69.0249 15.4131C68.8244 15.1732 68.5093 15.0532 68.0796 15.0532C67.7967 15.0532 67.5514 15.1159 67.3438 15.2412C67.1361 15.363 66.9749 15.5384 66.8604 15.7676C66.7493 15.9932 66.6938 16.2635 66.6938 16.5786V20H65.5283ZM73.7246 20.0967C73.3558 20.0967 73.0246 20.0269 72.731 19.8872C72.4409 19.744 72.2118 19.5417 72.0435 19.2803C71.8752 19.0189 71.791 18.7127 71.791 18.3618V18.3511C71.791 18.0002 71.8752 17.7012 72.0435 17.4541C72.2153 17.207 72.4624 17.0137 72.7847 16.874C73.1105 16.7308 73.5044 16.6449 73.9663 16.6162L76.1201 16.4873V17.3091L74.1274 17.438C73.7264 17.4631 73.431 17.549 73.2412 17.6958C73.0514 17.839 72.9565 18.0413 72.9565 18.3027V18.3135C72.9565 18.5785 73.0586 18.7879 73.2627 18.9419C73.4668 19.0923 73.7246 19.1675 74.0361 19.1675C74.3262 19.1675 74.584 19.1102 74.8096 18.9956C75.0387 18.8774 75.2178 18.7199 75.3467 18.5229C75.4756 18.3224 75.54 18.0968 75.54 17.8462V16.0093C75.54 15.687 75.4398 15.4417 75.2393 15.2734C75.0423 15.1016 74.7487 15.0156 74.3584 15.0156C74.0326 15.0156 73.7658 15.0729 73.5581 15.1875C73.354 15.3021 73.2179 15.4632 73.1499 15.6709L73.1392 15.687H72.0166L72.022 15.6494C72.0685 15.3271 72.1956 15.0479 72.4033 14.8115C72.6146 14.5716 72.8903 14.3854 73.2305 14.2529C73.5742 14.1204 73.9663 14.0542 74.4067 14.0542C74.8973 14.0542 75.3127 14.133 75.6528 14.2905C75.9966 14.4445 76.2562 14.6683 76.4316 14.9619C76.6107 15.252 76.7002 15.6011 76.7002 16.0093V20H75.54V19.1729H75.4541C75.3395 19.3698 75.1963 19.5381 75.0244 19.6777C74.8525 19.8138 74.6574 19.9176 74.439 19.9893C74.2205 20.0609 73.9824 20.0967 73.7246 20.0967ZM80.5459 20.0376C79.9085 20.0376 79.4466 19.9159 79.1602 19.6724C78.8773 19.4253 78.7358 19.0225 78.7358 18.4639V15.0854H77.8228V14.167H78.7358V12.6953H79.9282V14.167H81.1797V15.0854H79.9282V18.1792C79.9282 18.4943 79.9909 18.7217 80.1162 18.8613C80.2415 18.9974 80.4492 19.0654 80.7393 19.0654C80.8252 19.0654 80.8986 19.0636 80.9595 19.0601C81.0239 19.0565 81.0973 19.0511 81.1797 19.0439V19.9785C81.0866 19.9928 80.9863 20.0054 80.8789 20.0161C80.7715 20.0304 80.6605 20.0376 80.5459 20.0376ZM85.9492 20.188C85.3942 20.188 84.8965 20.0949 84.4561 19.9087C84.0156 19.7189 83.6396 19.4468 83.3281 19.0923C83.0166 18.7378 82.7767 18.3117 82.6084 17.814C82.4437 17.3127 82.3613 16.7505 82.3613 16.1274V16.1167C82.3613 15.2931 82.5081 14.5788 82.8018 13.9736C83.0954 13.3649 83.5107 12.894 84.0479 12.561C84.585 12.228 85.2134 12.0615 85.9331 12.0615C86.5203 12.0615 87.0449 12.1654 87.5068 12.373C87.9688 12.5807 88.3483 12.8726 88.6455 13.2485C88.9427 13.6209 89.1379 14.0578 89.231 14.5591L89.2363 14.6128H88.0278L88.0117 14.5591C87.8757 14.1007 87.6268 13.748 87.2651 13.501C86.9071 13.2539 86.4631 13.1304 85.9331 13.1304C85.4569 13.1304 85.0433 13.2521 84.6924 13.4956C84.3415 13.7391 84.0693 14.0846 83.876 14.5322C83.6862 14.9762 83.5913 15.5026 83.5913 16.1113V16.1221C83.5913 16.584 83.645 16.9993 83.7524 17.3682C83.8634 17.737 84.0228 18.0521 84.2305 18.3135C84.4382 18.5713 84.687 18.77 84.9771 18.9097C85.2671 19.0493 85.5947 19.1191 85.96 19.1191C86.3825 19.1191 86.7531 19.0368 87.0718 18.8721C87.394 18.7038 87.6447 18.471 87.8237 18.1738C88.0028 17.8766 88.0941 17.5293 88.0977 17.1318L88.103 16.96H86.1104V15.9878H89.2954V16.9492C89.2954 17.4398 89.2166 17.8838 89.0591 18.2812C88.9015 18.6787 88.6759 19.0207 88.3823 19.3071C88.0887 19.59 87.736 19.8084 87.3242 19.9624C86.9124 20.1128 86.4541 20.188 85.9492 20.188ZM91.5513 17.3521V16.3423H93.6675C94.1903 16.3423 94.5949 16.208 94.8813 15.9395C95.1714 15.6673 95.3164 15.2913 95.3164 14.8115V14.8008C95.3164 14.3138 95.1714 13.936 94.8813 13.6675C94.5949 13.3989 94.1903 13.2646 93.6675 13.2646H91.5513V12.2495H93.9683C94.4767 12.2495 94.9225 12.3569 95.3057 12.5718C95.6924 12.783 95.995 13.0802 96.2134 13.4634C96.4318 13.8429 96.541 14.2852 96.541 14.79V14.8008C96.541 15.3057 96.4318 15.7515 96.2134 16.1382C95.995 16.5213 95.6924 16.8203 95.3057 17.0352C94.9225 17.2464 94.4767 17.3521 93.9683 17.3521H91.5513ZM90.9497 20V12.2495H92.1528V20H90.9497ZM100.059 20V13.2915H97.6206V12.2495H103.701V13.2915H101.262V20H100.059Z" fill="#007AFD"/>
<defs>
<clipPath id="clip0_4560_2971">
<rect width="16" height="16" fill="white" transform="translate(10 8)"/>
</clipPath>
</defs>
</svg>
