<svg width="224" height="90" viewBox="0 0 224 90" fill="none" xmlns="http://www.w3.org/2000/svg">
<path fill-rule="evenodd" clip-rule="evenodd" d="M82.3868 30H88.1832L86.0201 40.4907H86.1014C87.0001 39.2669 89.2856 37.4697 93.0828 37.4697C97.0838 37.4697 99.2465 39.4692 99.2465 43.1443C99.2465 44.003 98.7985 46.0425 98.6346 46.7787L96.0213 59.1473H90.2242L92.7957 46.7787C92.9957 45.9342 93.1189 45.0732 93.1638 44.2065C93.1638 42.9405 91.7347 42.0434 90.3881 42.0434C86.8765 42.0434 85.0808 44.9815 84.4689 47.9219L82.1001 59.1469H76.3048L82.3868 30ZM110.003 30H104.206L98.0016 59.1469H103.799L110.003 30ZM154.284 30H160.081L153.876 59.1469H148.079L154.284 30ZM162.203 30H168L161.794 59.1476H155.997L162.203 30ZM139.008 41.8432C135.742 41.8432 134.111 43.9656 133.252 46.334H142.928C142.928 44.1709 142.396 41.8432 139.008 41.8432ZM148.521 46.7014C148.519 47.8117 148.41 48.9193 148.194 50.0084L132.639 50.008C132.599 50.5385 132.599 50.9059 132.599 51.2318C132.599 53.6823 134.11 55.3553 137.253 55.3553C139.58 55.3553 140.722 53.8041 141.581 52.4578H147.376C145.541 57.1932 142.52 59.7236 136.437 59.7236C130.803 59.7236 127.048 56.498 127.048 50.4982C127.048 43.7618 131.497 37.4752 138.683 37.4752C144.561 37.4752 148.521 40.5787 148.521 46.7014ZM121.275 44.2109C121.235 42.4159 120.214 41.3542 118.009 41.3542C115.968 41.3542 114.459 41.9254 114.459 43.4359C114.459 44.3752 115.152 44.9464 117.11 45.559L120.009 46.4976C123.111 47.5175 125.561 48.9873 125.561 52.5389C125.561 57.7655 120.376 59.724 115.518 59.724C111.395 59.724 106.539 58.0907 106.539 53.1534V52.2947H111.928V52.9872C111.928 54.9073 114.091 55.8455 116.092 55.8455C117.846 55.8455 119.765 55.2328 119.765 53.3147C119.765 51.8448 118.95 51.3953 117.684 50.9877L113.233 49.56C110.335 48.62 108.661 47.4768 108.661 44.1713C108.661 39.19 113.927 37.4756 118.01 37.4756C122.622 37.4756 126.746 38.7823 126.665 44.2113L121.275 44.2109ZM64.9805 55.8459C68.5735 55.8459 69.7573 53.3547 70.4107 51.0706L70.9815 49.0285C69.6512 49.8057 68.0861 49.9122 66.5601 50.016C66.4009 50.0268 66.2422 50.0376 66.0841 50.0492C63.8788 50.2948 61.7971 50.8253 61.7971 53.4782C61.7971 55.0716 63.3076 55.8459 64.9805 55.8459ZM68.4518 41.3483C66.3675 41.3483 64.5322 42.3283 64.1648 44.4514L58.7335 44.451C59.4671 39.1426 63.958 37.4697 68.7348 37.4697C72.4901 37.4697 77.5936 38.2862 77.5115 43.0216C77.4589 44.2156 77.3091 45.4034 77.0635 46.5731L75.1856 55.0645C74.9856 56.0034 74.8897 56.9614 74.8996 57.9213C74.9077 58.3373 74.9766 58.7498 75.1042 59.1458H69.3075V57.0641C67.7152 58.8591 65.2239 59.7178 62.8563 59.7178C58.2441 59.7178 56 57.1074 56 54.1663C56 50.1257 59.0613 47.5953 64.0838 46.9811C64.9987 46.8719 65.8325 46.7889 66.5868 46.7139C70.3419 46.3402 72.1246 46.1629 72.1246 43.9198C72.1246 41.8388 69.9209 41.3483 68.4518 41.3483Z" fill="black"/>
</svg>
