<svg width="224" height="90" viewBox="0 0 224 90" fill="none" xmlns="http://www.w3.org/2000/svg">
<path d="M82.9713 33.0172V57.0766H88.8492V44.0474C91.4179 47.9011 92.6513 52.4919 92.7525 57.0766H98.2811C98.3681 52.5272 99.3184 47.7428 102.141 44.0474V57.0772H108.018V48.682C108.693 51.2463 109.934 53.5024 112.009 55.2426C114.361 57.2197 117.349 58 120.39 58C124.402 58 128.11 56.4176 130.62 53.302C131.941 51.6611 132.804 49.9282 133.233 47.8865V57.0766H145.792V51.2889H139.234V47.8865H145.792V42.1421H139.234V38.8049H145.792V33.0172H133.233V42.1427H119.838V47.8871H127.065C126.666 48.8398 126.215 49.7558 125.468 50.4947C124.127 51.8042 122.348 52.3707 120.484 52.3707C116.065 52.3707 113.177 49.2198 113.177 44.9214C113.177 40.7747 116.363 37.7304 120.52 37.7304C123.148 37.7304 125.432 38.7117 126.506 41.1608H132.789C131.817 35.6887 126.361 32 120.911 32C117.901 32 114.932 32.8022 112.538 34.6648C110.297 36.3983 108.932 38.7689 108.018 41.3832V33.0172C101.481 33.5757 97.6135 39.5565 95.56 45.1005C94.3408 42.1208 92.9333 39.2056 90.6768 36.8423C88.5727 34.6362 86.0546 33.2176 82.9713 33.0172Z" fill="black"/>
<path fill-rule="evenodd" clip-rule="evenodd" d="M61 57.0766L66.8772 57.0772L67.0661 56.3682L67.5307 54.5123L68.0169 52.822L68.3723 51.7549L68.5395 51.2396H76.071V57.0772H81.9915V32.9173C81.9008 32.9173 81.8101 32.9155 81.7194 32.9136C81.6287 32.9118 81.5379 32.91 81.4472 32.91C73.5677 32.91 68.4303 38.1817 65.3464 44.9141C64.1277 47.557 63.0177 50.315 62.1829 53.101L61 57.0766ZM75.56 45.52H71.4C72.4306 43.2287 73.3557 41.4385 75.56 40.32V45.52Z" fill="black"/>
<path d="M163.96 33.0172H158.083V42.1427C157.336 40.581 156.117 39.2775 154.869 38.0886C152.924 36.2479 149.434 33.5398 146.764 33.0032V57.0766H152.649V45.5013C155.964 48.0303 157.872 53.0937 158.656 57.0766H163.96V33.0172Z" fill="black"/>
</svg>
