<svg width="224" height="90" viewBox="0 0 224 90" fill="none" xmlns="http://www.w3.org/2000/svg">
<mask id="mask0_14_53" style="mask-type:luminance" maskUnits="userSpaceOnUse" x="33" y="6" width="157" height="78">
<path d="M190 6H33V84H190V6Z" fill="white"/>
</mask>
<g mask="url(#mask0_14_53)">
<path d="M63.0595 28.0733L63.0643 39.2683C63.065 41.0368 61.2088 42.1707 59.6667 41.3438L48.5962 35.408C49.4405 33.9993 50.5022 32.7397 51.7331 31.6753L60.4157 39.8104C60.8757 40.2412 61.601 39.7741 61.4115 39.1689L58.0443 28.4196C59.1778 28.1457 60.3599 28 61.5756 28C62.0764 28 62.5711 28.0253 63.0595 28.0733Z" fill="black"/>
<path d="M60.0541 58.6924L60.0493 47.554C60.0486 45.7853 61.9047 44.6514 63.4468 45.4783L74.5214 51.4164C73.6714 52.8214 72.6047 54.0769 71.3689 55.1363L62.6978 47.0118C62.2378 46.5809 61.5126 47.0481 61.7021 47.6533L65.0565 58.362C63.9389 58.628 62.7737 58.7691 61.5759 58.7691C61.0624 58.7691 60.5546 58.743 60.0541 58.6924Z" fill="black"/>
<path d="M65.1089 42.2544L73.1499 33.4347C72.1008 32.1821 70.858 31.1013 69.4676 30.2415L63.596 41.4951C62.7803 43.0585 63.899 44.9403 65.6436 44.9394L76.6755 44.9346C76.7258 44.4249 76.7519 43.9078 76.7519 43.3846C76.7519 42.168 76.612 40.9847 76.3486 39.8495L65.7417 43.2639C65.1447 43.4561 64.6837 42.7208 65.1089 42.2544Z" fill="black"/>
<path d="M46.4715 41.8876L57.4701 41.8827C59.2148 41.882 60.3333 43.7636 59.5177 45.3269L53.6764 56.5227C52.2912 55.6649 51.0528 54.5881 50.0068 53.3403L58.0049 44.5677C58.43 44.1013 57.969 43.3661 57.372 43.5582L46.8122 46.9575C46.5432 45.8109 46.3999 44.6147 46.3999 43.3845C46.3999 42.8793 46.4246 42.3801 46.4715 41.8876Z" fill="black"/>
<path fill-rule="evenodd" clip-rule="evenodd" d="M94.8686 31.2147H97.9246L108.073 55.5806H104.707L101.575 47.828H91.169L88.1679 55.5806H84.9873L94.8686 31.2147ZM96.2923 35.0976L92.3442 44.9599H100.37L96.2923 35.0976Z" fill="black"/>
<path fill-rule="evenodd" clip-rule="evenodd" d="M128.011 47.0578C128.011 41.8597 131.547 38.0868 136.418 38.0868C141.311 38.0868 144.862 41.8597 144.862 47.0578C144.862 52.2561 141.311 56.029 136.418 56.029C131.547 56.029 128.011 52.2561 128.011 47.0578ZM131.195 47.0578C131.195 50.9689 133.197 53.3987 136.418 53.3987C139.663 53.3987 141.678 50.9689 141.678 47.0578C141.678 43.1468 139.663 40.7171 136.418 40.7171C133.197 40.7171 131.195 43.1468 131.195 47.0578Z" fill="black"/>
<path fill-rule="evenodd" clip-rule="evenodd" d="M167.193 38.0868C162.3 38.0868 158.749 41.8597 158.749 47.0578C158.749 52.2561 162.3 56.029 167.193 56.029C172.064 56.029 175.6 52.2561 175.6 47.0578C175.6 41.8597 172.064 38.0868 167.193 38.0868ZM167.193 53.3987C163.948 53.3987 161.932 50.9689 161.932 47.0578C161.932 43.1468 163.948 40.7171 167.193 40.7171C170.415 40.7171 172.417 43.1468 172.417 47.0578C172.417 50.9689 170.415 53.3987 167.193 53.3987Z" fill="black"/>
<path d="M150.276 55.5806H147.201V31.2147H150.276V55.5806Z" fill="black"/>
<path d="M153.336 55.5806H156.41V31.2147H153.336V55.5806Z" fill="black"/>
<path fill-rule="evenodd" clip-rule="evenodd" d="M118.386 56.0288C115.873 56.0288 113.991 54.8087 112.905 53.2961V62H109.831V38.5344H112.905V40.8487C113.993 39.3203 115.877 38.0867 118.386 38.0867C123.062 38.0867 126.204 41.6917 126.204 47.0577C126.204 52.4237 123.062 56.0288 118.386 56.0288ZM118.091 40.7915C114.945 40.7915 112.769 43.1683 112.769 46.5815V47.5341C112.769 50.9471 114.945 53.3237 118.091 53.3237C121.177 53.3237 123.02 50.9814 123.02 47.0577C123.02 43.134 121.177 40.7915 118.091 40.7915Z" fill="black"/>
</g>
</svg>
