<svg width="224" height="90" viewBox="0 0 224 90" fill="none" xmlns="http://www.w3.org/2000/svg">
<g clip-path="url(#clip0_144_4396)">
<path d="M108.952 36.2906H114.325V53.7078H110.343V41.9953L105.249 53.7078L99.8875 41.9805V53.7078H96.1719V36.2906H101.483L105.312 45.3056L108.952 36.2906Z" fill="black"/>
<path d="M116.312 36.2906V53.7078H126.32V50.755H120.192V46.3239H126.066V43.3433H120.192V39.3473H126.32V36.2906H116.312Z" fill="black"/>
<path d="M141.242 45.0023C141.242 51.4857 147.98 56.6737 155.079 53.2037V49.4722C149.617 53.3153 144.861 49.4634 144.939 45.1512C144.993 42.2853 146.91 39.5598 150.62 39.3473C152.444 39.2433 153.68 39.6987 155.079 41.0444V37.164C149.949 34.1112 141.242 37.4712 141.242 45.0023Z" fill="black"/>
<path d="M156.719 53.7077H160.407V36.4581H156.719V53.7077Z" fill="black"/>
<path d="M165.038 44.3679L170.611 36.4962H166.303L160.781 44.3531L167.192 53.7078H171.422L165.038 44.3679Z" fill="black"/>
<path d="M128.047 36.2906V53.7078H131.94V44.3505L138.375 53.7078H142.525L137.43 46.3944C139.791 45.4978 140.557 43.5097 140.557 41.5226C140.557 39.537 138.897 36.2906 134.877 36.2906H128.047ZM131.94 39.189H133.639C136.512 39.189 136.665 41.0751 136.665 41.7794C136.665 43.125 135.528 44.271 134.061 44.271H131.94V39.189Z" fill="black"/>
<path d="M61.2498 36.291C61.2498 31.4806 65.1331 27.5817 69.9223 27.5817C74.713 27.5817 78.5947 31.4806 78.5947 36.291H61.2498ZM61.2498 53.7089C61.2498 48.8993 65.1331 44.9996 69.9223 44.9996C65.1331 44.9996 61.2498 41.1013 61.2498 36.291C56.4606 36.291 52.5781 40.19 52.5781 44.9996C52.5781 49.8107 56.4606 53.7089 61.2498 53.7089ZM61.2498 53.7089C61.2498 58.52 65.1331 62.4183 69.9223 62.4183C74.713 62.4183 78.5947 58.52 78.5947 53.7089H61.2498ZM69.9223 44.9996C74.713 44.9996 78.5947 48.8993 78.5947 53.7089C83.3847 53.7089 87.2679 49.8107 87.2679 44.9996C87.2679 40.19 83.3847 36.291 78.5947 36.291C78.5947 41.1013 74.713 44.9996 69.9223 44.9996Z" fill="black"/>
</g>
<defs>
<clipPath id="clip0_144_4396">
<rect width="120" height="36" fill="white" transform="translate(52 27)"/>
</clipPath>
</defs>
</svg>
