<svg width="224" height="90" viewBox="0 0 224 90" fill="none" xmlns="http://www.w3.org/2000/svg">
<path d="M97.1998 38.6515L87.8849 61.6583H81.277L72 38.6515H78.6079L84.7216 54.3037L91.0405 38.6515H97.1998ZM111.762 61.9991C109.435 61.9991 107.351 61.4918 105.503 60.4774C103.716 59.5185 102.211 58.0603 101.177 56.2612C100.135 54.4622 99.6179 52.4254 99.6179 50.143C99.6179 47.8606 100.135 45.8237 101.177 44.0248C102.218 42.2257 103.716 40.7675 105.503 39.8085C107.351 38.7941 109.435 38.2869 111.762 38.2869C114.088 38.2869 116.164 38.7941 117.997 39.8085C119.776 40.7754 121.267 42.2336 122.308 44.0248C123.35 45.8237 123.867 47.8606 123.867 50.143C123.867 52.4254 123.35 54.4622 122.308 56.2612C121.274 58.0523 119.784 59.5106 118.005 60.4774C116.172 61.4918 114.088 61.9991 111.762 61.9991ZM111.762 56.5227C113.404 56.5227 114.75 55.9442 115.807 54.7872C116.856 53.6301 117.389 52.0847 117.389 50.143C117.389 48.2013 116.864 46.6559 115.807 45.4988C114.75 44.3417 113.404 43.7632 111.762 43.7711C110.119 43.7711 108.766 44.3497 107.701 45.5068C106.636 46.6638 106.104 48.2093 106.104 50.1509C106.104 52.0926 106.636 53.638 107.701 54.7951C108.766 55.9521 110.119 56.5227 111.762 56.5227ZM130.186 38.6436H136.589V61.6583H130.186V38.6436ZM133.388 35.4418C132.209 35.4418 131.251 35.0851 130.513 34.3719C129.791 33.6982 129.388 32.7313 129.411 31.7248C129.395 30.7183 129.798 29.7435 130.521 29.0699C131.258 28.3566 132.216 28 133.388 28C134.566 28 135.524 28.3408 136.262 29.0303C136.984 29.6722 137.387 30.6074 137.372 31.598C137.402 32.6442 136.999 33.6427 136.262 34.356C135.524 35.0772 134.566 35.4418 133.388 35.4418ZM147.014 61.9991C145.949 62.0229 144.931 61.587 144.185 60.8024C143.425 60.0098 143.007 58.932 143.037 57.8066C143.037 56.5783 143.417 55.5876 144.185 54.8347C145.797 53.321 148.238 53.321 149.85 54.8347C150.619 55.5876 150.998 56.5783 150.998 57.8066C151.029 58.9241 150.61 60.0098 149.85 60.8024C149.097 61.587 148.071 62.0229 147.014 61.9991Z" fill="#0A0A0A"/>
</svg>
