<?xml version="1.0" standalone="no"?>
<!DOCTYPE svg PUBLIC "-//W3C//DTD SVG 20010904//EN"
 "http://www.w3.org/TR/2001/REC-SVG-20010904/DTD/svg10.dtd">
<svg version="1.0" xmlns="http://www.w3.org/2000/svg"
 width="341.000000pt" height="164.000000pt" viewBox="0 0 341.000000 164.000000"
 preserveAspectRatio="xMidYMid meet">

<g transform="translate(0.000000,164.000000) scale(0.100000,-0.100000)"
fill="#000000" stroke="none">
<path d="M83 1484 c-21 -54 42 -209 114 -281 47 -47 165 -110 226 -119 20 -4
37 -10 37 -13 0 -4 -30 -33 -67 -65 -226 -195 -339 -418 -312 -614 16 -112 86
-209 188 -259 50 -25 66 -28 151 -27 62 1 111 7 140 18 127 47 293 183 399
326 l55 75 12 -55 c30 -148 79 -234 167 -294 88 -60 125 -69 282 -70 137 0
141 0 206 32 36 17 86 49 111 72 25 22 50 40 55 40 4 0 19 -24 33 -53 33 -69
90 -101 168 -93 69 6 124 34 192 95 30 28 58 50 62 51 4 0 10 -9 13 -21 10
-30 63 -87 99 -106 51 -27 168 -23 237 9 70 32 178 133 249 232 l54 76 18 -66
c10 -36 27 -82 37 -103 46 -89 175 -165 270 -159 l46 3 3 49 c5 74 -3 96 -35
96 -78 0 -153 75 -174 171 -16 75 4 220 48 339 53 145 54 134 -16 169 l-61 31
-20 -32 c-11 -18 -22 -37 -24 -43 -2 -5 -14 0 -27 12 -56 50 -109 68 -205 68
-85 0 -95 -2 -169 -39 -58 -29 -98 -58 -150 -110 -81 -82 -125 -153 -169 -269
-38 -101 -66 -147 -130 -215 -81 -86 -140 -105 -172 -56 -15 22 -16 34 -6 99
11 73 77 264 146 423 20 46 36 92 36 102 0 20 -116 69 -129 54 -7 -8 -87 -206
-162 -399 -53 -138 -233 -305 -328 -305 -73 0 -95 38 -95 165 l1 90 149 150
c165 166 261 292 329 432 56 115 79 200 70 262 -15 97 -54 134 -140 133 -127
-1 -253 -136 -381 -408 -118 -250 -176 -468 -178 -666 -1 -86 -5 -128 -12
-128 -28 0 -104 83 -126 138 -32 82 -32 288 1 412 31 119 93 285 157 418 39
83 51 118 45 130 -5 10 -30 37 -55 62 l-46 45 -88 -47 c-94 -50 -268 -123
-372 -156 -117 -37 -174 -47 -275 -47 -115 0 -180 18 -237 65 -39 32 -88 119
-88 156 0 28 -17 34 -91 34 -45 0 -61 -4 -66 -16z m1805 -170 c9 -76 -73 -240
-204 -409 -79 -102 -134 -156 -134 -131 0 24 80 226 125 317 73 145 167 267
199 256 6 -2 13 -17 14 -33z m-722 -94 c-10 -54 -117 -311 -176 -427 -82 -158
-169 -280 -266 -372 -104 -99 -187 -142 -284 -149 -86 -6 -132 14 -171 77 -25
38 -29 55 -29 113 0 220 208 444 590 635 105 53 326 152 339 153 2 0 1 -14 -3
-30z m1759 -415 c24 -13 45 -32 49 -41 8 -22 -77 -183 -151 -286 -99 -138
-202 -218 -281 -218 -148 0 -121 271 45 450 105 114 241 152 338 95z"/>
<path d="M2176 1259 c-58 -45 -72 -114 -31 -154 51 -52 149 -19 175 59 28 86
-71 152 -144 95z"/>
</g>
</svg>
