<?xml version="1.0" standalone="no"?>
<!DOCTYPE svg PUBLIC "-//W3C//DTD SVG 20010904//EN"
 "http://www.w3.org/TR/2001/REC-SVG-20010904/DTD/svg10.dtd">
<svg version="1.0" xmlns="http://www.w3.org/2000/svg"
 width="163.000000pt" height="169.000000pt" viewBox="0 0 163.000000 169.000000"
 preserveAspectRatio="xMidYMid meet">

<g transform="translate(0.000000,169.000000) scale(0.100000,-0.100000)"
fill="#000000" stroke="none">
<path d="M936 1454 c37 -22 114 -116 114 -139 0 -4 22 -44 49 -89 75 -124 89 -148 112 -191
24 -45 87 -153 207 -357 101 -171 120 -228 102 -293 -17 -62 -61 -120 -110
-145 -91 -47 -434 -36 -566 18 -136 55 -246 148 -315 267 -77 132 -94 192 -93
335 1 141 25 223 107 362 30 51 66 114 81 140 67 119 199 158 312 92z
M361 586 c108 -45 154 -170 101 -273 -34 -65 -83 -93 -162 -93 -81 0 -124 21 -165
81 -25 37 -30 54 -30 104 0 50 5 67 30 105 52 76 148 109 226 76z"/>
</g>
</svg>
