<?xml version="1.0" encoding="UTF-8" standalone="no"?>
<svg
   version="1.0"
   width="372.79013pt"
   height="348.26944pt"
   viewBox="0 0 372.79013 348.26944"
   preserveAspectRatio="xMidYMid"
   id="svg1"
   xmlns="http://www.w3.org/2000/svg"
   xmlns:svg="http://www.w3.org/2000/svg">
  <defs
     id="defs1" />
  <g
     transform="matrix(0.1,0,0,-0.1,-69.598176,427.52969)"
     fill="#000000"
     stroke="none"
     id="g1">
    <path
       d="m 1732,4270 c -345,-48 -720,-307 -906,-623 -57,-98 -70,-128 -102,-232 -23,-76 -27,-108 -27,-210 0,-103 4,-131 27,-202 46,-141 158,-266 320,-357 94,-52 106,-66 106,-121 0,-28 -7,-44 -31,-66 -17,-16 -35,-29 -40,-29 -27,0 -182,-115 -236,-175 -108,-120 -148,-231 -147,-405 2,-182 55,-332 179,-505 198,-276 498,-475 810,-536 99,-19 265,-17 345,5 190,52 303,145 418,342 41,70 70,94 116,94 37,0 68,-32 126,-130 180,-304 505,-402 896,-270 164,56 382,191 503,312 158,157 272,347 316,523 26,104 24,271 -5,355 -50,150 -150,266 -307,358 -112,65 -128,82 -128,134 0,49 18,66 130,127 87,48 206,159 249,233 119,205 104,480 -38,728 -134,233 -321,408 -570,534 -176,90 -298,120 -486,120 -109,-1 -134,-4 -198,-27 -160,-56 -268,-148 -362,-306 -58,-99 -89,-131 -126,-131 -49,0 -74,23 -136,127 -104,175 -227,275 -393,320 -65,17 -223,24 -303,13 z m -347,-829 c 17,-10 64,-49 105,-86 91,-82 81,-74 365,-320 127,-109 271,-235 320,-280 50,-44 157,-138 238,-208 l 148,-129 39,34 c 62,53 326,285 909,797 122,108 230,199 240,203 25,10 68,9 94,-3 44,-20 70,-93 51,-143 -5,-12 -140,-135 -339,-307 -16,-14 -73,-64 -125,-110 -52,-46 -141,-123 -196,-171 -56,-48 -108,-93 -115,-100 -8,-8 -72,-65 -144,-127 -71,-62 -163,-143 -204,-180 -95,-85 -142,-117 -186,-125 -68,-13 -103,6 -262,146 -82,73 -199,176 -259,228 -60,52 -125,109 -144,126 -86,77 -409,360 -538,472 -78,68 -147,132 -152,142 -13,24 -13,86 0,110 25,48 104,63 155,31 z m 703,-1076 c 40,-32 72,-63 72,-67 0,-4 -28,-31 -63,-60 -35,-29 -164,-143 -288,-252 -123,-110 -258,-229 -299,-265 -41,-35 -79,-70 -85,-76 -26,-29 -63,-45 -103,-45 -62,0 -102,40 -102,103 0,28 6,52 17,65 10,11 153,138 317,283 165,145 331,292 370,326 39,35 74,59 81,55 6,-4 43,-34 83,-67 z m 1158,-32 c 60,-54 217,-193 349,-309 309,-272 305,-268 305,-319 0,-49 -22,-82 -65,-101 -60,-25 -90,-7 -293,174 -282,251 -416,370 -504,445 -43,38 -78,72 -76,77 5,13 152,130 164,130 5,0 59,-44 120,-97 z"
       id="path1" />
  </g>
</svg>
