<svg width="40" height="40" viewBox="0 0 40 40" fill="none" xmlns="http://www.w3.org/2000/svg"><circle cx="20" cy="20" r="12" fill="var(--icon-fill, white)" stroke="currentColor" stroke-width="1.1"/><path d="M20 10c-5.5 0-10 4.5-10 10 0 4.4 2.9 8.2 6.8 9.5.5.1.7-.2.7-.5v-2c-2.8.6-3.4-1.3-3.4-1.3-.5-1.2-1.2-1.5-1.2-1.5-.9-.6.1-.6.1-.6 1 .1 1.5 1 1.5 1 .9 1.5 2.3 1.1 2.9.8.1-.6.4-1.1.6-1.3-2.2-.2-4.5-1.1-4.5-4.9 0-1.1.4-2 1-2.7-.1-.2-.5-1.3.1-2.7 0 0 .8-.3 2.7 1a9 9 0 0 1 4.9 0c1.9-1.3 2.7-1 2.7-1 .6 1.4.2 2.5.1 2.7.6.7 1 1.6 1 2.7 0 3.8-2.3 4.6-4.5 4.9.4.3.7.9.7 1.8v2.6c0 .3.2.6.7.5 3.9-1.3 6.8-5.1 6.8-9.5 0-5.5-4.5-10-10-10z" fill="currentColor" stroke="none"/></svg>
