<svg width="40" height="40" viewBox="0 0 40 40" fill="none" xmlns="http://www.w3.org/2000/svg"><path d="M33 28V15a2.5 2.5 0 0 0-1.2-2.1l-10-5.6a2.5 2.5 0 0 0-2.6 0l-10 5.6A2.5 2.5 0 0 0 8 15v13c0 .9.5 1.7 1.2 2.1l10 5.6c.8.5 1.8.5 2.6 0l10-5.6A2.5 2.5 0 0 0 33 28z" fill="var(--icon-fill, white)" stroke="currentColor" stroke-width="1.1" stroke-linejoin="round"/><path d="M8.5 13.5L20 20l11.5-6.5M20 34V20" stroke="currentColor" stroke-width="1.1" stroke-linecap="round" stroke-linejoin="round" opacity=".6"/></svg>
